<svg width="51" height="116" viewBox="0 0 51 116" fill="none" xmlns="http://www.w3.org/2000/svg">
<path d="M42.8273 58.3413C42.8273 40.1425 32.1746 16.3332 15.9938 6.85162C15.0818 6.3171 11.5195 3.87545 10.2542 4.45446C9.16056 4.95502 9.63984 7.14246 9.36451 7.24921C8.4412 7.60702 8.35959 8.84113 6.96047 7.21682C6.10665 6.22561 6.48185 3.23765 7.01474 2.29407C10.8885 -4.56443 24.9621 5.82487 28.5942 9.13149C42.4123 21.7115 51.7211 43.7521 50.9561 62.3727C50.5611 71.9868 46.4265 82.2734 38.8016 88.4229C30.8055 94.8717 23.0834 93.5648 13.7347 92.0854C14.4781 96.1787 22.196 101.954 24.9613 105.211C26.818 107.398 33.365 116.846 24.8602 115.939C20.5097 115.475 15.9142 105.696 13.5999 102.592C9.88388 97.6073 6.43797 92.2755 2.66121 87.429C1.08519 85.4065 -0.568649 85.6654 0.190035 82.3819C0.876232 79.4126 4.23362 78.1862 6.5092 76.7958C11.5521 73.7148 16.4592 69.9339 21.7888 67.3654C27.5957 64.5669 31.547 67.1915 26.5523 72.4601C24.6638 74.4523 14.1825 80.046 14.3973 82.267C14.5347 83.6891 22.7987 83.7719 23.2251 83.7839C27.5618 83.9048 30.7102 83.2005 34.0753 80.4183C41.0838 74.6238 41.9912 66.7397 42.8273 58.3413C42.6101 60.5229 42.8273 56.8927 42.8273 58.3413Z" fill="#1195DF"/>
</svg>
