<svg width="198" height="46" viewBox="0 0 198 46" fill="none" xmlns="http://www.w3.org/2000/svg">
    <path d="M47.9423 2.44559C54.8013 3.40789 59.0555 5.05177 63.9959 9.92354C68.337 14.2043 72.1493 18.7472 77.0246 22.4709C86.3443 29.5894 99.2898 36.6413 111.348 36.0139C123.535 35.3798 134.903 29.5987 145.657 24.3994C151.545 21.5521 157.499 18.7816 163.453 16.0681C166.408 14.7212 169.286 13.226 172.211 11.8182C174.932 10.5087 178.965 9.61373 181.073 7.5208C176.547 5.65475 169.392 6.20349 164.453 5.42236C161.61 4.97265 151.292 2.08315 159.353 0.421191C164.353 -0.609493 171.25 0.513653 176.509 1.01157C182.211 1.55167 188.103 1.83437 193.793 2.60922C200.84 3.56877 197.238 7.514 195.747 12.3701C194.066 17.8452 192.953 25.8465 189.737 30.6169C185.91 36.2944 181.162 31.726 182.627 26.2309C183.456 23.124 185.215 19.8895 186.524 16.937C187.087 15.6686 189.677 11.7773 189.158 10.2973C170.366 18.2852 154.715 31.9858 135.932 40.0724C127.411 43.7413 117.196 46.5121 107.819 45.92C98.7233 45.3458 89.7888 41.1218 82.0188 36.4983C72.9445 31.0986 66.1537 24.5764 59.2038 16.7683C52.9016 9.68817 46.2089 8.07938 37.1177 10.8373C28.4513 13.4664 20.6959 19.0978 13.8923 24.8774C10.9575 27.3704 5.16316 31.6381 4.38458 35.5501C4.209 36.433 5.23326 37.6989 4.65361 38.4338C3.57339 39.8031 1.51062 37.8241 0.923186 37.0047C-4.35054 29.6497 14.4894 16.5855 19.077 13.2466C26.593 7.77586 38.1736 1.55979 47.9423 2.44559C49.4248 2.65361 46.7236 2.33503 47.9423 2.44559Z"
          fill="#D8B9FF"/>
</svg>
