<svg width="54" height="113" viewBox="0 0 54 113" fill="none" xmlns="http://www.w3.org/2000/svg">
<path d="M44.1951 53.3367C41.5682 35.3285 27.5904 13.3061 10.2104 6.25942C9.23082 5.86213 5.3534 3.96024 4.18492 4.71582C3.17501 5.369 3.96501 7.46435 3.70797 7.60972C2.84598 8.09706 2.94336 9.33002 1.32443 7.92468C0.336481 7.06708 0.276463 4.05626 0.667571 3.04564C3.5108 -4.30018 18.9367 3.9489 23.008 6.69663C38.4972 17.1504 50.8899 37.6165 52.8207 56.1525C53.8175 65.7229 51.211 76.4986 44.5536 83.6843C37.572 91.2198 29.7422 91.0412 20.2778 90.9267C21.6043 94.8698 30.075 99.471 33.2815 102.295C35.4344 104.19 43.2767 112.595 34.7299 112.924C30.3579 113.093 24.3991 104.08 21.661 101.342C17.2644 96.9466 13.085 92.168 8.6482 87.9174C6.79675 86.1435 5.1976 86.6385 5.47439 83.2798C5.72481 80.2426 8.87002 78.5445 10.9211 76.8402C15.4664 73.0635 19.7764 68.6139 24.6795 65.303C30.0216 61.6956 34.3104 63.7224 30.1284 69.6568C28.5473 71.9007 18.9832 78.9488 19.5163 81.1154C19.8576 82.5028 28.0469 81.392 28.4706 81.3422C32.7793 80.8359 35.7931 79.6845 38.7214 76.4458C44.8201 69.7003 44.58 61.7678 44.1951 53.3367C44.2951 55.5268 43.986 51.9033 44.1951 53.3367Z" fill="#D8B9FF"/>
</svg>
