<svg width="208" height="137" viewBox="0 0 208 137" fill="none" xmlns="http://www.w3.org/2000/svg">
    <path d="M72.1794 84.9813C73.5 89 81.2244 87.7144 86.088 88.0983C96.2147 88.898 106.397 89.1361 116.563 89.332C135.872 89.7041 155.184 89.8847 176.128 90.1669C165.186 80.396 149.729 77.3821 143.953 61.812C146.916 61.7749 148.899 61.1211 149.82 61.8328C163.914 72.7231 179.922 79.9036 196.464 86.1026C209.92 91.1448 210.703 97.4677 199.439 105.525C187.613 113.985 176.744 123.772 165.327 132.815C163.467 134.288 160.936 134.913 158.295 136.122C157.719 129.446 165.292 118.681 181.012 103.829C177.653 103.714 175.167 103.55 172.679 103.557C147.594 103.627 122.503 103.994 97.4249 103.659C89.365 103.552 81.1209 102.41 73.3426 100.336C59.418 96.6229 54.1508 86.764 58.9336 73.1C61.35 66.1967 65.3941 59.6783 69.6223 53.6236C74.4587 46.6976 80.4972 40.6181 85.6704 33.9079C89.3374 29.1509 92.4346 23.9577 95.9054 18.7814C90.4826 14.4142 84.9271 14.5383 79.6659 14.2195C57.197 12.8575 34.9586 14.8664 12.9438 19.6048C10.2954 20.1748 7.6081 21.1404 4.9825 21.0238C3.38253 20.9524 1.37167 19.4568 0.510414 18.0222C0.0434585 17.2439 1.20547 14.6185 2.3172 13.9285C5.45944 11.9781 8.81021 10.0929 12.3346 9.07242C36.3465 2.11917 60.8459 -0.764038 85.7741 1.16689C90.7863 1.55496 95.9085 2.60414 100.611 4.33693C109.092 7.46264 112.38 13.7151 109.043 22.0904C106.331 28.8968 102.178 35.2911 97.8237 41.2602C91.4404 50.0116 84.0968 58.0623 77.5774 66.7218C73.9407 71.5518 70.6144 76.8395 72.1794 84.9813Z"
          fill="#D8B9FF"/>
</svg>
