<svg width="51" height="116" viewBox="0 0 51 116" fill="none" xmlns="http://www.w3.org/2000/svg">
<path d="M8.17271 58.3413C8.17271 40.1425 18.8254 16.3332 35.0062 6.85163C35.9182 6.31711 39.4805 3.87545 40.7458 4.45446C41.8394 4.95502 41.3602 7.14247 41.6355 7.24921C42.5588 7.60702 42.6404 8.84113 44.0395 7.21683C44.8934 6.22561 44.5182 3.23765 43.9853 2.29407C40.1115 -4.56443 26.0379 5.82487 22.4058 9.1315C8.58768 21.7115 -0.721099 43.7521 0.0438743 62.3727C0.438861 71.9868 4.5735 82.2734 12.1984 88.4229C20.1945 94.8717 27.9166 93.5648 37.2653 92.0854C36.5219 96.1787 28.804 101.954 26.0387 105.211C24.182 107.398 17.635 116.846 26.1398 115.939C30.4903 115.475 35.0858 105.696 37.4001 102.592C41.1161 97.6073 44.562 92.2755 48.3388 87.429C49.9148 85.4065 51.5686 85.6654 50.81 82.3819C50.1238 79.4126 46.7664 78.1862 44.4908 76.7959C39.4479 73.7148 34.5408 69.9339 29.2111 67.3654C23.4043 64.5669 19.453 67.1915 24.4477 72.4601C26.3362 74.4523 36.8175 80.046 36.6027 82.267C36.4653 83.6891 28.2013 83.7719 27.7749 83.7839C23.4382 83.9048 20.2898 83.2005 16.9247 80.4183C9.91621 74.6238 9.00876 66.7397 8.17271 58.3413C8.38986 60.5229 8.17271 56.8927 8.17271 58.3413Z" fill="#D8B9FF"/>
</svg>
