<svg width="143" height="100" viewBox="0 0 143 86" fill="none" xmlns="http://www.w3.org/2000/svg">
<path d="M71.681 0.493256C52.7864 0.493256 40.9779 9.9379 36.2538 28.8254C43.34 19.3808 51.6063 15.8404 61.0527 18.2006C66.443 19.5473 70.2953 23.4581 74.5605 27.7853C81.5067 34.8342 89.5461 42.9924 107.108 42.9924C126.001 42.9924 137.811 33.5477 142.534 14.6584C135.449 24.1031 127.183 27.6453 117.735 25.285C112.346 23.9383 108.494 20.0275 104.229 15.7004C97.2826 8.65144 89.2414 0.493256 71.681 0.493256V0.493256ZM36.2538 42.9924C17.361 42.9924 5.5507 52.437 0.828369 71.3263C7.91275 61.8816 16.179 58.3395 25.6272 60.7015C31.0158 62.05 34.8681 65.959 39.1333 70.2844C46.0794 77.3333 54.1207 85.4933 71.681 85.4933C90.5757 85.4933 102.384 76.0486 107.108 57.1593C100.022 66.604 91.7558 70.1462 82.3094 67.7841C76.919 66.4392 73.0667 62.5266 68.8016 58.2013C61.8554 51.1523 53.8159 42.9924 36.2538 42.9924V42.9924Z" fill="#06B6D4"/>
</svg>
