<svg width="122" height="118" viewBox="0 0 122 118" fill="none" xmlns="http://www.w3.org/2000/svg">
<path fill-rule="evenodd" clip-rule="evenodd" d="M22.4098 82.3961C22.4098 82.3961 22.4097 82.3963 22.5406 82.4696C22.612 82.6015 22.6121 82.6015 22.6121 82.6015L22.6194 82.5975L22.6419 82.5854L22.7304 82.5381C22.8083 82.4967 22.9232 82.4359 23.071 82.3587C23.3665 82.2043 23.7933 81.9844 24.3184 81.7225C25.3686 81.1985 26.8109 80.5066 28.3798 79.8348C29.9492 79.1628 31.6423 78.5121 33.1948 78.0692C34.753 77.6247 36.1485 77.3961 37.1322 77.5498L37.1785 77.2534C36.126 77.0889 34.6764 77.3346 33.1125 77.7807C31.5429 78.2284 29.8369 78.8845 28.2617 79.559C26.6859 80.2338 25.2381 80.9283 24.1844 81.454C23.6575 81.7169 23.229 81.9377 22.9321 82.0928C22.9253 82.0963 22.9185 82.0999 22.9119 82.1033C22.9569 82.0198 23.0076 81.9252 23.0634 81.8204C23.3077 81.3613 23.6489 80.7058 24.0373 79.9195C24.8139 78.3474 25.78 76.2498 26.5356 74.1524C27.2892 72.0602 27.8407 69.9486 27.7722 68.3559C27.7379 67.5586 27.5475 66.8709 27.1285 66.3832C26.7048 65.89 26.0675 65.6242 25.1923 65.6327L25.1952 65.9327C26.0048 65.9248 26.5483 66.1682 26.9009 66.5786C27.2582 66.9945 27.4396 67.6049 27.4725 68.3688C27.5383 69.8988 27.0053 71.9631 26.2533 74.0507C25.5031 76.1333 24.5424 78.2197 23.7684 79.7866C23.3815 80.5698 23.0417 81.2226 22.7986 81.6795C22.677 81.9079 22.5797 82.0873 22.5128 82.2095C22.4794 82.2706 22.4536 82.3174 22.4361 82.3489L22.4163 82.3844L22.4098 82.3961ZM22.5406 82.4696L22.6121 82.6015L22.1564 82.848L22.4098 82.3961L22.5406 82.4696Z" fill="white"/>
<path fill-rule="evenodd" clip-rule="evenodd" d="M60.8032 46.1122C47.9197 53.056 36.4218 62.813 29.4709 74.0642L29.7261 74.2219C36.6424 63.0266 48.0952 53.3022 60.9455 46.3763C73.7959 39.4503 88.03 35.3302 100.5 35.3302V35.0302C87.9696 35.0302 73.6867 39.1683 60.8032 46.1122Z" fill="white"/>
</svg>
