<svg width="241" height="64" viewBox="0 0 241 64" fill="none" xmlns="http://www.w3.org/2000/svg">
<path d="M240.241 21.8987C240.563 25.784 237.738 29.8877 231.985 33.9865C226.263 38.0632 217.789 42.0276 207.168 45.6546C185.934 52.906 156.228 58.7719 123.087 61.5224C89.9466 64.2729 59.6799 63.3845 37.5407 59.7329C26.4672 57.9065 17.4557 55.3933 11.1398 52.3156C4.78976 49.2213 1.32674 45.6396 1.00427 41.7542C0.681806 37.8688 3.50697 33.7652 9.26003 29.6664C14.9821 25.5897 23.456 21.6252 34.0769 17.9983C55.3112 10.7469 85.0173 4.88096 118.158 2.13043C151.299 -0.620088 181.565 0.268351 203.704 3.91995C214.778 5.74638 223.789 8.2596 230.105 11.3372C236.455 14.4315 239.918 18.0133 240.241 21.8987Z" stroke="white"/>
</svg>
