<svg width="82" height="78" viewBox="0 0 82 78" fill="none" xmlns="http://www.w3.org/2000/svg">
<path d="M82 67.5V10C82 4.47715 77.5229 0 72 0H44.75C42.1266 0 40 2.12665 40 4.75C40 7.37335 42.1266 9.5 44.75 9.5H49.25C51.8734 9.5 54 11.6266 54 14.25C54 16.8734 51.8734 19 49.25 19H5.75C2.57436 19 0 21.5744 0 24.75C0 27.9256 2.57436 30.5 5.75 30.5H49C51.7614 30.5 54 32.7386 54 35.5V36.5C54 39.2614 51.7614 41.5 49 41.5H36C32.9624 41.5 30.5 43.9624 30.5 47C30.5 50.0376 32.9624 52.5 36 52.5H62.5C65.5376 52.5 68 54.9624 68 58C68 61.0376 65.5376 63.5 62.5 63.5H14C10.134 63.5 7 66.634 7 70.5C7 74.366 10.134 77.5 14 77.5H72C77.5229 77.5 82 73.0229 82 67.5Z" fill="white"/>
<rect x="3" y="1.5" width="28" height="9" rx="4.5" fill="white"/>
<rect x="3" y="43.5" width="21" height="9" rx="4.5" fill="white"/>
</svg>
