<svg width="1098" height="1601" viewBox="0 0 1098 1601" fill="none" xmlns="http://www.w3.org/2000/svg">
<path d="M749.886 1601C548.708 1601 347.531 1601 146.353 1601C141.574 1592.33 141.217 1582.46 138.992 1573.12C131.676 1542.4 124.493 1511.64 117.904 1480.76C117.13 1477.13 113.798 1471.65 118.063 1469.81C121.92 1468.15 123.34 1474.27 125.379 1477.22C136.383 1493.18 146.922 1509.65 160.396 1523.52C183.787 1547.58 211.253 1563.58 246.433 1564C278.543 1564.38 308.359 1555.49 337.738 1544.37C380.583 1528.17 420.814 1506.69 458.961 1481.44C475.539 1470.47 491.84 1459.1 509.059 1449.12C558.813 1421.19 604.118 1386.88 649.122 1352.08C673.321 1333.37 697.734 1314.9 722.674 1297.17C725.374 1295.25 728.034 1293.24 730.937 1291.64C736.804 1288.39 738.506 1289.09 739.742 1295.55C741.898 1306.81 743.334 1318.18 744.279 1329.59C746.893 1361.15 745.855 1392.79 745.734 1424.38C745.636 1450.14 747.045 1475.85 747.838 1501.56C748.615 1526.73 748.487 1551.97 750.531 1577.11C750.943 1582.18 752.327 1587.15 751.991 1592.3C751.793 1595.35 752.161 1598.48 749.886 1601Z" fill="#363733"/>
<path d="M909.195 1601C857.624 1601 806.053 1601 754.482 1601C751.328 1596.83 751.805 1591.83 751.458 1587.07C748.975 1553.02 748.701 1518.89 747.461 1484.79C745.914 1442.25 745.201 1399.7 745.299 1357.14C745.345 1336.97 743.623 1316.92 739.84 1297.13C738.403 1289.61 740.073 1284.63 746.682 1280.38C789.092 1253.07 830.52 1224.17 875.875 1201.7C876.56 1201.36 877.236 1201 877.922 1200.66C889.695 1194.85 891.67 1196.2 892.377 1209.47C895.26 1263.6 897.691 1317.75 901.958 1371.81C904.821 1408.08 906.885 1444.43 908.516 1480.8C910.149 1517.2 911.451 1553.6 911.421 1590.03C911.418 1593.81 911.987 1597.76 909.195 1601Z" fill="#363733"/>
<path d="M509.407 1450.92C506.67 1452.74 504.061 1454.8 501.173 1456.34C488.772 1462.94 477.476 1471.21 466.034 1479.28C456.046 1486.32 445.557 1492.6 434.993 1498.74C427.511 1503.09 420.019 1507.42 412.569 1511.83C402.681 1517.67 392.301 1522.54 381.895 1527.35C379.818 1528.32 377.641 1529.08 375.616 1530.13C364.981 1535.67 353.759 1539.85 342.761 1544.56C325.138 1552.11 306.789 1557.16 288.219 1561.58C277.319 1564.18 266.35 1566.22 255.061 1565.86C251.239 1565.74 247.409 1565.78 243.584 1565.83C224.929 1566.11 208.083 1560.17 192.185 1550.95C183.809 1546.09 175.756 1540.74 168.359 1534.48C165.059 1531.69 161.848 1528.7 159.07 1525.41C150.385 1515.1 142.137 1504.45 134.37 1493.42C129.098 1485.94 123.626 1478.6 118.99 1470.69C118.897 1470.53 118.521 1470.54 117.908 1470.36C118.31 1473.12 118.523 1475.79 119.103 1478.37C123.11 1496.21 127.181 1514.03 131.255 1531.85C136.178 1553.38 141.139 1574.9 146.031 1596.44C146.365 1597.91 146.258 1599.48 146.356 1601C145.335 1601 144.314 1601 143.292 1601C140.98 1596.09 140.744 1590.67 139.536 1585.5C133.803 1560.93 128.158 1536.35 122.549 1511.75C117.846 1491.14 113.407 1470.46 108.549 1449.88C97.535 1403.21 83.346 1357.5 67.358 1312.31C56.903 1282.75 45.118 1253.72 33.874 1224.48C24.909 1201.16 16.901 1177.52 11.04 1153.2C7.57 1138.8 5.49499 1124.19 3.58199 1109.51C0.900995 1088.95 0.41698 1068.34 0.69198 1047.65C0.91398 1031.02 2.73001 1014.55 5.98901 998.282C9.74501 979.532 12.92 960.691 16.084 941.838C20.784 913.832 28.773 886.722 39.838 860.588C51.184 833.789 68.898 811.58 90.575 792.404C103.218 781.22 116.844 771.414 131.389 762.806C152.035 750.587 173.561 740.088 195.035 729.47C204.173 724.952 213.302 720.414 222.391 715.799C231.031 711.412 239.841 707.466 248.96 704.14C258.584 700.63 267.464 695.672 275.589 689.348C293.603 675.325 307.553 657.945 318.274 637.909C323.683 627.801 328.755 617.514 334.158 607.403C335.205 605.444 335.267 603.555 335.29 601.534C335.421 590.054 335.54 578.575 335.7 567.096C335.71 566.362 336.026 565.632 336.2 564.899C335.152 550.899 335.152 536.899 336.194 522.902C339.595 522.02 339.397 525.132 340.52 526.78C341.648 530.5 341.4 534.345 341.406 538.159C341.435 557.789 341.485 577.419 341.371 597.048C341.341 602.145 342.694 606.332 346.105 610.281C389.364 660.356 439.991 700.506 501.157 726.819C522.112 735.834 543.514 742.981 566.016 746.841C574.815 748.35 583.548 750.374 591.864 753.654C596.967 755.666 599.219 754.632 600.082 749.039C602.996 730.157 606.465 711.364 608.474 692.344C610.67 671.546 615.393 651.126 617.96 630.377C618.268 627.888 618.846 625.196 622.299 625.071C624.431 627.839 623.446 630.822 622.91 633.774C623.45 636.853 622.821 639.885 622.34 642.878C620.68 653.199 618.596 663.458 617.171 673.81C615.614 685.118 614.247 682.512 623.212 689.891C641.534 704.97 660.145 719.699 678.68 734.519C686.85 741.052 695.103 747.483 703.363 753.902C707.592 757.188 711.924 760.342 716.204 763.563C722.503 768.304 722.839 771.185 717.75 777.392C716.309 779.15 714.747 780.809 713.324 782.418C713.855 784.105 715.163 784.261 716.384 784.599C731.979 788.919 746.629 795.324 760.025 804.471C761.897 805.749 764.106 806.598 765.43 808.597C766.093 810.071 765.25 810.852 764.103 811.494C760.382 812.472 757.76 810.114 755.066 808.313C743.08 800.297 729.882 795.01 716.275 790.521C711.677 789.004 707.93 789.625 704.237 792.723C688.401 806.009 671.569 817.979 654.502 829.599C648.896 833.416 648.069 837.32 650.239 843.794C670.996 905.694 689.598 968.215 702.376 1032.32C705.615 1048.57 707.355 1065.05 709.322 1081.5C709.908 1086.4 707.864 1093.57 716.367 1094.53C717.586 1095.07 718.329 1095.97 718.45 1097.33C717.658 1101.51 714.006 1102.67 710.896 1104.25C665.582 1127.2 619.556 1148.55 571.628 1165.56C564.172 1168.21 557.011 1171.64 549.465 1174.02C543.958 1175.75 541.29 1179.46 540.097 1184.95C537.002 1199.2 535.452 1213.66 534.561 1228.14C531.808 1272.88 531.045 1317.77 522.052 1361.93C515.435 1394.42 504.398 1425.27 488.406 1454.33C487.545 1455.89 486.621 1457.43 485.238 1458.59C484.525 1459.35 483.902 1460.21 483.14 1460.91C482.83 1461.24 482.488 1461.57 482.194 1461.94C482.032 1462.14 482.02 1462.35 482.049 1462.5C482.251 1463.5 483.295 1463.08 482.303 1462.84C482.303 1462.84 482.297 1462.6 482.299 1462.12C482.932 1461.4 483.617 1460.75 484.293 1460.08C491.275 1455.08 498.201 1450 506.797 1448.01C508.261 1448.44 509.924 1448.7 509.407 1450.92Z" fill="#010101"/>
<path d="M509.407 1450.92C508.707 1449.58 507.443 1449.38 506.127 1449.28C506.281 1445.49 509.509 1444.37 512.033 1442.94C575.286 1406.97 630.882 1360.27 688.919 1316.98C718.985 1294.56 749.755 1273.16 781.443 1253.09C807.079 1236.85 832.513 1220.3 859.126 1205.63C895.988 1185.31 934.997 1172.14 976.892 1167.06C997.376 1164.58 1017.78 1161.2 1038.15 1157.76C1050.01 1155.75 1061.65 1152.76 1070.51 1143.58C1074.98 1138.95 1077.78 1133.67 1077.23 1127.12C1076.22 1115.21 1079.36 1104.67 1085.74 1094.51C1092.62 1083.56 1093.74 1072.25 1084.9 1061.12C1080.43 1055.49 1079.62 1048.64 1081.46 1041.47C1083.23 1034.55 1085.37 1027.73 1087.03 1020.78C1089.16 1011.87 1087.19 1004.14 1080.48 997.707C1076.98 994.355 1073.62 990.881 1069.79 987.874C1058.83 979.273 1054.09 967.937 1056.22 954.175C1057.06 948.715 1056.39 943.547 1055.65 938.249C1054.85 932.434 1051.78 928.499 1046.54 925.931C1043.71 924.547 1039.9 924.223 1039.04 920.177C1040.97 917.617 1043.33 918.527 1045.67 919.344C1053.93 921.202 1058.89 926.38 1061.1 934.452C1062.06 937.932 1062.53 941.458 1062.5 945.035C1062.47 949.624 1062.41 954.223 1062.09 958.798C1061.36 969.112 1065.36 977.135 1073.5 983.275C1074.72 984.197 1075.99 985.067 1077.14 986.065C1079.45 988.064 1081.78 990.06 1083.97 992.191C1093.04 1001.02 1095.49 1011.71 1092.52 1023.78C1091.37 1028.47 1089.8 1033.07 1088.5 1037.72C1087.88 1039.93 1087.31 1042.16 1086.91 1044.41C1085.96 1049.69 1086.97 1054.53 1090.32 1058.83C1092.67 1061.84 1094.96 1064.87 1096.12 1068.63C1098.24 1075.52 1097.52 1082.22 1095.09 1088.87C1093.51 1093.2 1091.27 1097.21 1088.84 1101.1C1084.65 1107.81 1082.48 1114.94 1083.67 1122.92C1083.93 1124.68 1083.8 1126.49 1083.8 1128.27C1083.82 1134.95 1081.39 1140.71 1077.1 1145.72C1073.05 1150.45 1068.05 1153.93 1062.46 1156.58C1054.09 1160.54 1045.22 1162.85 1036.13 1164.26C1021.77 1166.49 1007.36 1168.37 993.018 1170.68C973.147 1173.87 953.163 1176.46 933.579 1181.28C921.174 1184.33 909.191 1188.6 897.49 1193.69C893.386 1195.47 893.363 1195.51 893.622 1199.9C894.36 1212.37 895.209 1224.84 895.877 1237.32C896.681 1252.34 897.464 1267.37 898.042 1282.41C898.933 1305.61 900.975 1328.73 902.668 1351.87C904.026 1370.44 905.218 1389.02 906.315 1407.6C908.21 1439.68 910.397 1471.75 911.668 1503.86C912.808 1532.65 912.874 1561.49 913.429 1590.31C913.498 1593.88 913.667 1597.44 913.79 1601C912.258 1601 910.726 1601 909.195 1601C909.158 1578.03 909.126 1555.06 909.079 1532.09C909.073 1529.29 909.063 1526.52 908.313 1523.74C907.791 1521.81 907.808 1519.71 907.777 1517.68C907.673 1511.05 907.681 1504.41 907.6 1497.78C907.544 1493.2 907.814 1488.62 906.474 1484.11C905.981 1482.45 906.273 1480.56 906.2 1478.78C905.855 1470.4 906.524 1462 904.878 1453.63C904.055 1449.44 904.663 1444.98 904.561 1440.64C904.459 1436.32 904.923 1431.95 903.393 1427.75C903.223 1427.29 903.197 1426.74 903.219 1426.24C903.654 1416.28 902 1406.44 901.559 1396.53C901.333 1391.45 901.827 1386.34 900.303 1381.34C899.871 1379.92 900.108 1378.3 900.051 1376.77C899.814 1370.42 900.364 1364.04 898.71 1357.75C898.142 1355.59 898.547 1353.18 898.469 1350.89C898.315 1346.32 898.718 1341.72 897.275 1337.23C896.822 1335.82 897.033 1334.19 896.982 1332.66C896.805 1327.33 897.142 1321.98 895.697 1316.7C895.108 1314.55 895.493 1312.14 895.415 1309.84C895.234 1304.51 895.167 1299.22 894.294 1293.87C893.398 1288.39 893.949 1282.68 893.825 1277.07C893.713 1271.98 894.144 1266.88 892.673 1261.87C892.186 1260.21 892.449 1258.32 892.43 1256.53C892.365 1250.41 892.382 1244.28 892.268 1238.16C892.068 1227.47 890.214 1216.87 890.656 1206.14C890.761 1203.59 889.686 1201.19 888.634 1198.96C886.846 1198.21 885.53 1199.25 884.216 1199.9C870.072 1206.95 856.011 1214.13 842.371 1222.17C827.221 1231.1 812.478 1240.64 797.621 1250.02C781.684 1260.09 765.734 1270.13 750.155 1280.74C748.261 1282.03 746.359 1283.32 744.401 1284.51C741.094 1286.52 740.329 1289.4 740.993 1293.05C742.449 1301.04 744.368 1309 744.96 1317.06C745.574 1325.42 747.057 1333.69 746.957 1342.16C746.689 1364.87 746.911 1387.58 746.966 1410.3C746.975 1414.11 746.822 1417.9 747.897 1421.69C748.506 1423.83 748.229 1426.25 748.244 1428.54C748.318 1440.02 748.292 1451.51 748.433 1462.99C748.514 1469.6 747.916 1476.25 749.653 1482.78C750.099 1484.46 749.794 1486.33 749.804 1488.12C749.862 1497.56 749.848 1507.01 749.985 1516.45C750.073 1522.55 750.033 1528.6 751.032 1534.72C751.967 1540.45 751.277 1546.43 751.443 1552.3C751.623 1558.64 750.849 1565.06 752.731 1571.3C752.945 1572.02 752.849 1572.83 752.868 1573.59C753.049 1580.96 752.636 1588.36 754.335 1595.65C754.731 1597.36 754.452 1599.21 754.483 1601C752.951 1601 751.419 1601 749.888 1601C749.75 1593.88 750.378 1586.73 748.57 1579.69C748.076 1577.77 748.451 1575.62 748.368 1573.58C748.101 1566.98 748.823 1560.33 747.055 1553.8C746.602 1552.13 746.908 1550.25 746.896 1548.46C746.84 1540.04 746.858 1531.61 746.726 1523.19C746.631 1517.09 747.203 1510.96 745.552 1504.93C745.094 1503.26 745.393 1501.38 745.38 1499.59C745.312 1489.89 745.272 1480.19 745.185 1470.49C745.149 1466.43 745.293 1462.38 744.164 1458.34C743.563 1456.2 743.859 1453.78 743.853 1451.49C743.773 1419.07 743.721 1386.66 743.632 1354.24C743.621 1350.18 743.991 1346.07 742.6 1342.1C742.274 1341.17 742.326 1340.08 742.345 1339.06C742.548 1328.33 741.149 1317.77 739.319 1307.22C738.41 1301.99 737.972 1296.67 737.332 1291.47C735.087 1290.79 733.741 1292.08 732.309 1293.09C723.587 1299.28 714.752 1305.31 706.175 1311.68C684.125 1328.08 662.143 1344.57 640.227 1361.15C626.225 1371.74 612.424 1382.59 598.463 1393.24C593.609 1396.94 588.595 1400.44 583.569 1403.9C573.716 1410.7 563.91 1417.57 553.89 1424.11C539.389 1433.58 524.844 1442.99 509.407 1450.92Z" fill="#020202"/>
<path d="M298.078 317.356C297.949 316.864 297.897 316.334 297.679 315.885C288.841 297.698 286.898 278.3 287.82 258.467C288.306 248.027 289.273 237.609 290.017 227.18C291.57 205.409 296.769 184.451 304.012 163.934C312.273 140.533 322.385 118.067 336.758 97.682C347.838 81.967 360.476 67.715 375.24 55.335C387.641 44.937 401.211 36.399 415.903 29.762C445.555 16.367 476.554 7.31999 508.688 2.26599C521.57 0.239992 534.572 -0.300001 547.606 0.447999C556.819 0.976999 565.818 2.782 574.578 5.594C609.006 16.644 640.097 33.654 666.986 57.987C681.55 71.166 695.977 84.496 710.373 97.859C714.481 101.672 718.301 105.801 722.178 109.857C725.367 113.193 727.896 117.003 730.043 121.098C733.79 128.247 734.419 135.714 732.163 143.344C730.795 147.971 729.075 152.521 727.157 156.952C720.514 172.3 718.298 188.202 720.313 204.804C721.879 217.71 723.105 230.657 724.44 243.59C725.674 255.554 725.508 267.514 724.537 279.498C723.63 290.686 722.643 301.856 720.761 312.928C719.341 321.281 716.963 329.314 712.382 336.541C710.762 339.097 709.185 341.815 705.611 341.995C703.351 342.083 703.191 347.046 699.788 344.505C698.387 342.906 697.63 340.989 697.523 338.924C696.783 324.754 692.37 311.419 688.537 297.917C683.163 278.991 682.905 259.801 685.611 240.338C687.89 223.941 689.736 207.413 686.31 190.858C684.596 182.576 682.416 174.515 678.158 167.087C674.567 160.822 669.353 158.151 662.263 158.856C661.248 158.957 660.206 158.918 659.219 159.155C629.753 166.24 601.083 160.991 572.273 154.384C532.441 145.249 492.177 138.627 451.12 138.902C434.227 139.015 418.43 143.689 403.65 151.924C383.365 163.225 374.815 181.123 373.614 203.597C372.649 221.655 371.978 239.782 367.994 257.533C365.234 269.829 360.827 281.621 354.125 292.22C343.356 309.251 337.921 327.878 335.504 347.597C334.104 359.024 330.826 370.066 328.772 381.359C328.298 383.964 328.033 387.606 324.546 387.764C321.349 387.909 320.103 384.651 318.992 382.125C313.231 369.024 308.62 355.484 304.781 341.726C302.868 334.872 300.018 328.888 294.806 324.07C294.232 323.005 294.097 321.913 294.691 320.809C295.618 319.477 299.518 321.034 298.078 317.356Z" fill="#010101"/>
<path d="M297.137 320.461C296.401 320.997 295.664 321.532 294.928 322.068C291.335 323.349 288.572 320.854 285.503 319.906C275.571 316.838 268.601 319.007 263.17 327.792C256.272 338.95 253.733 350.939 254.819 364.298C256.688 387.286 263.266 408.749 272.35 429.723C277.776 442.25 285 453.581 293.195 464.384C294.75 466.434 296.648 468.117 298.645 469.724C303.216 473.402 307.937 476.292 313.949 472.952C318.864 470.222 322.08 462.895 321.04 456.348C320.2 451.06 318.99 445.832 318.611 440.471C318.429 437.903 317.87 434.735 321.035 434.028C324.86 433.174 325.572 436.732 326.004 439.386C328.839 456.814 333.062 473.891 339.182 490.442C366.522 564.388 414.148 620.434 486.45 653.393C520.602 668.962 554.251 664.942 585.02 642.95C608.945 625.85 626.065 602.821 640.597 577.571C665.523 534.26 678.277 486.873 688.019 438.414C690.683 425.161 693.53 411.954 695.796 398.616C698.329 383.709 699.347 368.767 698.928 353.679C698.845 350.701 698.354 347.48 700.851 345.007C702.499 344.1 703.114 341.563 705.61 341.995C702.935 344.296 704.545 347.193 704.298 349.771C706.011 350.573 706.741 349.425 707.606 348.598C711.113 345.246 714.795 342.128 718.992 339.638C721.901 337.912 725.028 336.83 728.352 336.58C733.342 336.204 737.316 338.027 739.728 342.64C741.284 345.615 742.109 348.777 742.416 352.122C743.169 360.315 742.412 368.371 740.825 376.43C734.817 406.946 726.705 436.882 716.184 466.148C714.47 470.916 712.005 475.417 709.807 480.004C709.151 481.374 708.285 482.656 707.408 483.904C704.407 488.173 700.58 491.475 695.651 493.299C690.896 495.058 686.19 495.104 681.865 491.462C680.995 494.147 680.261 496.037 679.769 497.988C674.075 520.55 665.35 541.99 655.337 562.903C647.957 578.316 638.975 592.839 628.958 606.694C627.123 609.232 626.102 611.802 625.698 614.989C624.904 621.258 624.934 627.674 622.908 633.767C622.842 632.026 622.769 630.282 622.714 628.537C622.673 627.229 622.252 626.112 621.169 625.308C618.73 621.672 617.451 624.139 615.642 626.126C603.543 639.416 590.014 650.87 573.739 658.883C543.409 673.815 512.729 674.017 482.144 660.376C450.59 646.303 423.139 625.872 398.578 601.892C380.462 584.204 365.891 563.501 354.075 540.987C349.222 531.741 343.484 522.945 339.99 513.118C338.949 516.295 340.802 520.057 337.798 522.686C335.908 524.196 336.324 526.332 336.321 528.32C336.303 537.463 336.338 546.606 336.327 555.749C336.324 558.796 336.242 561.843 336.197 564.893C335.038 562.755 335.392 560.409 335.415 558.152C335.64 536.47 333.73 514.878 332.734 493.248C332.665 491.742 332.482 490.2 332.062 488.759C330.23 482.464 328.292 476.199 326.434 470.06C324.816 469.717 324.478 470.751 323.939 471.598C323.257 472.669 322.564 473.753 321.727 474.7C315.776 481.429 307.487 482.715 299.671 478.068C295.467 475.569 292.001 472.172 288.812 468.509C283.097 461.945 278.394 454.661 274.288 447.028C264.967 429.699 257.66 411.534 253.032 392.395C249.91 379.487 248.415 366.337 248.76 353.008C249.018 343.062 252.169 334.021 257.193 325.591C258.611 323.211 260.507 321.073 262.405 319.03C268.878 312.063 276.887 310.901 285.523 313.709C289.349 314.953 292.861 317.165 296.515 318.937C297.017 319.324 297.24 319.826 297.137 320.461Z" fill="#040303"/>
<path d="M1045.67 919.343C1043.52 919.656 1041.02 918.64 1039.4 920.984C1034.17 924.654 1028 922.759 1022.32 923.643C1009.5 925.637 996.916 928.953 983.754 929.203C951.883 929.808 945.264 912.589 949.62 886.317C951.535 874.768 955.815 863.696 957.831 852.1C961.43 831.395 958.864 811.409 950.885 792.123C947.9 784.908 942.929 778.957 935.875 775.302C927.062 770.735 920.147 774.058 918.153 783.742C916.92 789.731 916.398 795.892 916.078 801.963C915.534 812.273 913.548 822.286 910.387 831.962C901.437 859.359 894.401 887.601 881.598 913.455C857.88 961.35 830.617 1007.23 793.428 1046.18C773.915 1066.61 749.834 1081.38 725.762 1095.89C723.416 1097.3 720.903 1098.9 717.883 1097.53C717.238 1096.82 716.593 1096.12 715.948 1095.42C715.93 1091.07 719.756 1090.44 722.459 1088.84C749.131 1073.06 774.762 1055.79 795.506 1032.5C813.349 1012.47 828.752 990.522 842.485 967.443C856.755 943.46 856.571 943.527 847.498 917.115C835.554 882.344 815.026 853.862 786.112 831.246C780.087 826.533 774.3 821.527 767.967 817.202C765.725 815.671 763.015 814.244 763.477 810.737C764.127 810.022 764.777 809.307 765.427 808.592C769.222 811.136 773.098 813.569 776.799 816.244C795.93 830.078 812.804 846.277 827.316 864.905C833.764 873.181 839.008 882.201 843.429 891.712C849.999 905.847 855.065 920.502 858.798 935.628C859.095 936.833 859.548 937.999 859.917 939.149C862.259 939.298 862.444 937.43 863.087 936.338C871.115 922.699 878.083 908.546 883.356 893.599C890.895 872.228 898.37 850.836 905.019 829.163C908.33 818.37 909.89 807.309 910.682 796.091C911.005 791.521 911.518 786.958 912.136 782.417C912.408 780.421 913.025 778.441 913.718 776.539C915.768 770.918 919.983 768.113 925.827 767.488C931.913 766.837 937.453 768.217 942.48 771.723C947.393 775.15 951.092 779.617 953.973 784.828C958.203 792.479 960.814 800.684 962.718 809.182C967.11 828.782 966.017 848.143 960.721 867.415C958.428 875.76 956.412 884.184 954.419 892.608C953.286 897.397 953.758 902.144 954.827 906.979C956.947 916.568 963.254 921.079 972.402 922.494C981.32 923.874 990.199 923.416 999.034 921.726C1008.55 919.907 1018.04 917.982 1027.73 917.32C1032.59 916.988 1037.42 917.209 1042.23 917.905C1043.5 918.091 1044.73 918.358 1045.67 919.343Z" fill="#030303"/>
<path d="M297.137 320.461C296.929 319.953 296.721 319.444 296.513 318.936C297.035 318.409 297.556 317.882 298.078 317.355C299.208 318.065 299.875 319.056 299.111 320.289C298.904 320.626 297.819 320.419 297.137 320.461Z" fill="#AAAAAA"/>
<path d="M534.577 1177.76C535.848 1179.39 535.316 1180.88 534.906 1182.34C532.56 1190.69 531.609 1199.24 530.52 1207.82C529.691 1214.36 529.683 1220.99 528.212 1227.49C527.383 1231.16 527.904 1235.12 527.767 1238.94C527.503 1246.31 528.262 1253.71 526.494 1261.03C525.909 1263.45 526.347 1266.11 526.271 1268.67C526.111 1274 526.662 1279.39 524.984 1284.61C524.757 1285.32 524.769 1286.14 524.82 1286.9C525.459 1296.36 523.848 1305.72 522.904 1315.06C521.937 1324.62 520.611 1334.19 519.043 1343.72C516.726 1357.79 513.582 1371.64 510.042 1385.43C507.123 1396.81 503.065 1407.78 498.732 1418.67C494.197 1430.08 488.39 1440.86 482.902 1451.8C479.575 1458.43 474.842 1464.16 470.487 1470.12C469.902 1470.92 469.081 1471.6 468.246 1472.16C455.31 1480.74 442.845 1490.05 429.027 1497.28C422.715 1500.59 416.682 1504.43 410.565 1508.1C398.952 1515.06 386.745 1520.83 374.358 1526.26C367.822 1529.12 361.412 1532.27 354.851 1535.07C345.715 1538.97 336.674 1543.22 327.262 1546.32C313.024 1551 298.726 1555.57 283.907 1558.32C276.394 1559.71 268.99 1561.45 261.278 1561.38C259.033 1561.37 256.79 1562.44 254.531 1562.51C250.474 1562.64 246.388 1563.02 242.357 1561.85C240.675 1561.37 238.832 1561.26 237.064 1561.28C227.992 1561.36 219.296 1559.29 211.083 1555.79C197.678 1550.08 184.901 1543.05 173.659 1533.72C167.409 1528.53 161.83 1522.55 156.637 1516.18C147.611 1505.13 139.32 1493.53 130.999 1481.97C126.995 1476.41 123.958 1470.16 120.149 1464.44C112.457 1452.89 110.257 1439.47 106.83 1426.47C102.354 1409.5 97.849 1392.52 92.523 1375.79C86.575 1357.11 80.663 1338.4 74.245 1319.87C68.328 1302.79 62.133 1285.81 55.566 1268.95C44.197 1239.77 31.995 1210.88 22.882 1180.86C17.414 1162.85 12.538 1144.7 9.86899 1126C8.68399 1117.7 7.78801 1109.37 6.69101 1101.08C5.71601 1093.7 6.22498 1086.27 5.10998 1079.03C3.85298 1070.87 3.678 1062.73 4.169 1054.64C4.845 1043.5 5.378 1032.35 6.582 1021.21C8.446 1003.98 12.522 987.205 15.723 970.247C17.041 963.264 18.146 956.23 19.019 949.178C20.71 935.508 24.071 922.199 27.578 908.935C31.682 893.412 36.669 878.129 42.893 863.339C48.739 849.447 56.241 836.385 65.761 824.608C76.69 811.087 89.012 798.956 102.352 787.799C114.929 777.281 128.654 768.592 143.071 760.881C150.709 756.796 158.145 752.334 165.775 748.236C170.927 745.469 176.207 742.921 181.523 740.479C198.68 732.6 215.526 724.113 232.186 715.231C236.88 712.729 241.964 710.921 246.957 709.027C256.286 705.487 265.297 701.306 273.557 695.699C278.611 692.268 283.368 688.427 287.703 684.064C290.26 681.49 291.286 681.424 294.459 683.349C298.376 685.725 302.388 688.058 305.904 690.96C314.54 698.088 323.192 705.203 331.352 712.905C337.082 718.313 343.28 723.225 349.252 728.379C350.795 729.711 352.324 731.067 353.772 732.5C360.124 738.783 366.424 745.12 372.782 751.397C379.321 757.852 385.048 764.995 390.85 772.102C397.931 780.775 405.607 788.962 412.718 797.611C420.639 807.246 429.63 815.946 437.036 826.035C441.096 831.566 445.707 836.693 450.094 841.982C452.21 844.532 454.397 844.923 457.562 843.49C460.937 841.962 463.376 839.306 465.557 836.496C470.549 830.063 475.291 823.437 480.224 816.957C489.675 804.542 500.313 793.271 512.512 783.487C516.879 779.985 520.903 776.053 525.292 772.581C533.895 765.775 543.074 759.826 552.668 754.48C556.997 752.068 561.541 751.674 566.003 752.834C575.834 755.391 585.817 757.336 595.285 761.351C611.461 768.212 622.567 779.691 628.83 795.992C631.211 802.188 632.568 808.676 634.153 815.099C636.967 826.502 641.267 837.394 645.415 848.354C648.838 857.399 651.818 866.619 654.772 875.833C657.101 883.1 659.108 890.47 661.228 897.804C666.313 915.4 671.332 933.016 676.471 950.597C679.827 962.076 683.164 973.554 685.814 985.225C688.571 997.368 692.061 1009.38 694.137 1021.63C695.917 1032.14 698.6 1042.48 699.639 1053.16C700.448 1061.48 702.249 1069.69 702.609 1078.11C702.824 1083.14 704.124 1088.13 704.892 1093.15C705.122 1094.65 705.278 1096.17 705.333 1097.69C705.382 1099.04 704.758 1100.2 703.624 1100.92C702.338 1101.74 700.973 1102.45 699.61 1103.14C681.865 1112.13 663.902 1120.65 645.67 1128.62C635.397 1133.11 625.311 1138.04 614.952 1142.31C602.715 1147.36 590.285 1151.95 577.919 1156.68C566.266 1161.15 554.595 1165.56 542.917 1169.95C530.284 1174.7 517.642 1179.43 504.987 1184.12C495.674 1187.57 486.386 1191.11 476.987 1194.31C468.314 1197.26 459.557 1200 450.75 1202.53C436.571 1206.6 422.256 1210.2 408.122 1214.42C396.886 1217.78 385.403 1219.96 373.994 1222.49C361.842 1225.19 349.626 1227.59 337.429 1230.08C336.19 1230.34 334.889 1230.28 333.618 1230.39C328.217 1230.85 327.406 1230.31 327.296 1224.9C327.099 1215.2 327.442 1205.48 326.999 1195.8C326.651 1188.21 325.498 1180.65 324.626 1173.09C323.987 1167.54 323.264 1162 322.505 1156.46C321.711 1150.68 320.829 1144.91 319.986 1139.14C319.839 1138.13 319.594 1137.13 319.559 1136.12C319.253 1127.21 317.694 1118.44 316.588 1109.62C315.703 1102.57 315.491 1095.43 314.766 1088.35C314.094 1081.79 313.139 1075.26 312.304 1068.71C312.175 1067.7 311.971 1066.7 311.889 1065.69C311.128 1056.32 310.508 1046.94 308.896 1037.67C308.853 1037.42 308.841 1037.16 308.855 1036.9C309.347 1027.95 307.481 1019.15 306.858 1010.27C306.347 1002.99 305.688 995.619 304.657 988.314C303.522 980.269 302.441 972.214 301.022 964.213C300.537 961.479 299.705 958.804 298.982 956.116C298.82 955.511 298.268 955.316 297.725 955.623C297.324 955.85 296.741 956.211 296.709 956.556C296.568 958.07 296.242 959.695 296.624 961.107C298.956 969.738 299.258 978.677 300.711 987.44C301.913 994.688 301.561 1002.19 302.764 1009.44C304.227 1018.25 303.293 1027.25 305.35 1035.98C305.524 1036.71 305.608 1037.5 305.563 1038.26C305.102 1045.94 306.891 1053.47 307.581 1061.05C308.174 1067.56 308.552 1074.18 309.843 1080.71C311.167 1087.4 311.127 1094.36 311.836 1101.18C312.57 1108.25 313.485 1115.3 314.324 1122.35C314.474 1123.62 314.747 1124.88 314.776 1126.14C314.94 1133.29 316.294 1140.27 317.459 1147.29C318.331 1152.54 318.746 1157.87 319.446 1163.16C320.312 1169.7 321.263 1176.23 322.177 1182.76C322.248 1183.27 322.355 1183.77 322.369 1184.28C322.773 1198.53 324.775 1212.72 324.018 1227.02C323.802 1231.11 323.518 1231.47 319.335 1232.69C315.155 1233.91 310.791 1233.72 306.521 1234.56C298.062 1236.21 289.528 1237.55 281.037 1239.11C272.992 1240.6 265.273 1243.14 257.405 1245.19C238.627 1250.09 220.737 1257.55 202.674 1264.47C196.04 1267.01 189.593 1270.23 183.736 1274.41C182.911 1275 181.922 1275.46 181.809 1276.62C181.763 1277.09 181.81 1277.68 182.062 1278.04C182.305 1278.39 182.856 1278.67 183.291 1278.7C183.749 1278.73 184.281 1278.51 184.694 1278.26C196.286 1271.18 208.707 1265.96 221.546 1261.63C231.681 1258.21 241.671 1254.34 251.87 1251.13C265.69 1246.77 279.577 1242.65 294.055 1240.83C302.357 1239.79 310.522 1237.51 318.837 1236.74C335.357 1235.22 351.328 1230.96 367.522 1227.83C376.252 1226.14 384.993 1224.47 393.653 1222.47C401.332 1220.69 408.982 1218.71 416.514 1216.4C437.681 1209.9 459.318 1204.97 480.166 1197.42C497.406 1191.17 514.603 1184.81 531.825 1178.51C532.739 1178.18 533.712 1178 534.577 1177.76Z" fill="#363733"/>
<path d="M717.883 1097.53C723.452 1095.54 728.343 1092.25 733.298 1089.17C750.431 1078.53 767.063 1067.18 782.314 1053.89C792.164 1045.3 801.074 1035.91 809.194 1025.68C833.056 995.59 852.962 962.959 871.564 929.478C877.641 918.54 882.889 907.196 886.991 895.373C893.841 875.63 900.483 855.816 907.227 836.036C912.295 821.173 914.168 805.759 915.15 790.193C915.359 786.874 915.683 783.597 916.652 780.388C918.807 773.252 923.775 770.097 931.166 771.368C935.54 772.12 939.369 774.037 942.716 776.972C946.622 780.397 949.477 784.584 951.776 789.186C955.685 797.01 957.908 805.355 959.534 813.909C962.686 830.495 961.88 846.9 957.612 863.188C955.48 871.324 953.294 879.448 951.326 887.623C949.446 895.432 949.266 903.208 951.855 911.009C954.221 918.139 958.944 922.684 965.893 925.019C969.272 926.154 972.768 926.858 976.376 927.058C985.346 927.553 994.219 927.011 1003.01 925.115C1015 922.53 1027.07 920.648 1039.4 920.983C1041.79 921.822 1044.22 922.569 1046.57 923.519C1053.03 926.13 1056.81 930.908 1057.77 937.83C1058.51 943.142 1059.09 948.445 1058.36 953.839C1057.82 957.879 1057.41 962.003 1058.21 966.045C1059.81 974.079 1063.61 980.844 1070.28 985.826C1075.19 989.496 1080.02 993.261 1083.87 998.106C1089.13 1004.71 1091 1012.12 1089.15 1020.36C1088.32 1024.09 1087.18 1027.75 1086.19 1031.44C1085.2 1035.13 1084.23 1038.83 1083.22 1042.51C1081.39 1049.14 1082.81 1055.12 1086.73 1060.63C1087.32 1061.46 1087.91 1062.3 1088.56 1063.09C1093.91 1069.65 1094.21 1077.13 1092.15 1084.82C1091.24 1088.23 1089.52 1091.44 1087.95 1094.64C1086.49 1097.61 1084.68 1100.4 1083.11 1103.32C1080.26 1108.6 1078.86 1114.21 1079.36 1120.26C1079.57 1122.8 1079.67 1125.35 1079.71 1127.9C1079.81 1134.38 1077.34 1139.79 1072.88 1144.41C1069.1 1148.33 1064.63 1151.23 1059.7 1153.44C1052.92 1156.48 1045.84 1158.61 1038.5 1159.76C1024.65 1161.93 1010.74 1163.81 996.897 1166.04C978.018 1169.09 959.106 1172 940.332 1175.61C922.485 1179.05 905.517 1185.41 889.043 1193.06C865.647 1203.92 843.149 1216.42 821.309 1230.14C781.552 1255.1 741.888 1280.22 704.169 1308.23C679.382 1326.64 654.585 1345.05 630.26 1364.06C592.614 1393.47 553.66 1420.92 512.386 1445.03C510.218 1446.3 507.794 1447.25 506.127 1449.28C499.613 1451.8 493.937 1455.86 487.89 1459.24C486.383 1460.08 484.871 1460.91 483.361 1461.75C482.945 1461.37 482.768 1460.95 482.83 1460.51C482.894 1460.05 482.985 1459.82 483.102 1459.82C495.691 1437.56 505.957 1414.32 513.037 1389.71C518.544 1370.58 522.337 1351.09 524.923 1331.36C528.503 1304.02 530.241 1276.55 531.247 1249.03C531.881 1231.68 533.487 1214.42 535.68 1197.23C536.419 1191.43 538.174 1185.78 539.171 1180.01C539.816 1176.27 541.84 1174.57 545.346 1173.29C560.663 1167.71 575.815 1161.68 591.11 1156.04C604.74 1151.01 618.255 1145.71 631.452 1139.63C656.213 1128.23 681.156 1117.22 705.484 1104.9C709.79 1102.72 714.025 1100.45 717.883 1097.53Z" fill="#E3CAB8"/>
<path d="M763.476 810.738C764.832 813.001 766.968 814.338 769.115 815.752C777.835 821.495 785.737 828.29 793.573 835.153C797.203 838.331 801.332 840.917 804.499 844.649C812.874 854.521 822.171 863.639 829.283 874.545C836.263 885.248 841.467 896.857 846.188 908.689C850.716 920.039 853.938 931.765 856.399 943.728C856.85 945.919 856.637 947.542 855.481 949.432C847.253 962.872 839.701 976.732 830.603 989.631C821.819 1002.09 812.806 1014.36 803.362 1026.34C796.215 1035.4 788.03 1043.41 779.507 1051C767.935 1061.31 755.296 1070.32 742.237 1078.72C734.962 1083.4 727.737 1088.15 720.039 1092.11C718.427 1092.94 716.905 1093.81 715.951 1095.42C709.216 1097.34 709.293 1097.33 708.463 1090.31C706.945 1077.47 705.584 1064.6 703.691 1051.81C700.641 1031.21 696.146 1010.89 691.22 990.667C685.566 967.463 679.162 944.468 672.402 921.551C665.35 897.648 658.47 873.702 650.405 850.116C649.171 846.508 647.795 842.944 646.366 839.407C645.158 836.417 645.587 833.867 648.194 831.932C653.092 828.296 657.99 824.653 663.019 821.204C676.87 811.705 690.303 801.661 703.165 790.857C703.942 790.205 704.876 789.736 705.63 789.062C708.117 786.843 710.564 786.454 713.95 787.573C723.387 790.692 732.77 793.969 741.683 798.314C747.834 801.313 753.543 805.225 759.399 808.813C760.704 809.613 761.865 810.622 763.476 810.738Z" fill="#363733"/>
<path d="M340.946 511.934C346.764 522.966 352.328 534.124 358.451 545.004C375.441 575.194 397.414 601.035 424.799 622.262C438.519 632.897 452.559 643.065 467.886 651.307C478.907 657.234 490.207 662.522 502.488 665.356C533.939 672.614 562.685 666.305 588.816 647.738C599.034 640.477 608.104 631.855 616.395 622.434C617.561 621.11 618.854 619.896 620.12 618.664C620.26 618.528 620.614 618.613 621.17 618.574C621.17 620.831 621.17 623.068 621.17 625.306C620.809 626.519 620.302 627.708 620.11 628.947C617.102 648.324 614.055 667.695 611.192 687.094C609.779 696.669 608.786 706.305 607.483 715.897C606.73 721.443 605.756 726.96 604.848 732.485C603.447 741.017 602.018 749.545 600.568 758.272C599.737 758.272 598.907 758.501 598.286 758.238C586.725 753.336 574.602 750.36 562.315 748.155C541.643 744.444 521.755 738.369 502.676 729.591C495.044 726.08 487.294 722.824 479.667 719.303C458.258 709.419 438.953 696.144 420.168 682.069C402.814 669.065 386.292 655.058 370.45 640.249C363.549 633.798 357.137 626.899 351.16 619.579C348.262 616.03 345.342 612.452 342.043 609.293C339.978 607.316 339.301 605.304 339.321 602.602C339.424 588.328 339.453 574.053 339.423 559.779C339.401 549.078 339.251 538.378 339.158 527.677C339.352 522.384 336.045 516.691 340.946 511.934Z" fill="#E3CAB8"/>
<path d="M549.522 750.353C549.549 751.246 548.944 751.686 548.301 752.112C543.636 755.204 539.055 758.433 534.294 761.368C524.939 767.135 516.616 774.177 508.537 781.561C505.541 784.299 502.229 786.694 499.252 789.451C488.003 799.87 478.772 812.023 469.652 824.261C466.16 828.947 462.943 833.857 458.509 837.765C455.679 840.26 453.654 840.271 451.372 837.499C446.854 832.01 442.453 826.425 438.011 820.873C434.524 816.515 431.441 811.744 427.479 807.873C420.721 801.27 415.116 793.666 408.478 786.978C406.165 784.648 404.295 781.879 402.224 779.31C398.402 774.569 394.582 769.827 390.76 765.086C390.44 764.689 390.149 764.265 389.795 763.901C379.673 753.503 370.91 741.719 359.669 732.515C353.169 727.192 347.544 720.963 340.784 715.904C335.538 711.978 330.695 707.346 325.951 702.782C318.575 695.685 310.461 689.633 302.153 683.767C301.115 683.034 300.007 682.401 298.966 681.673C294.398 678.479 294.231 677.452 298.139 673.497C306.259 665.279 312.17 655.463 318.347 645.84C323.728 637.458 327.789 628.368 332.304 619.522C333.231 617.705 334.074 615.841 335.086 614.074C336.484 611.633 338.102 611.248 339.975 613.021C342.193 615.12 344.497 617.21 346.305 619.645C352.849 628.458 359.798 637.029 368.282 643.903C374.813 649.195 380.376 655.49 387.207 660.47C394.575 665.842 401.188 672.241 408.254 678.042C412.767 681.747 417.374 685.364 422.164 688.697C434.475 697.263 446.488 706.343 459.645 713.568C469.45 718.952 479.372 724.203 489.853 728.296C497.43 731.255 504.826 734.679 512.311 737.875C523.785 742.775 535.624 746.554 547.779 749.35C548.489 749.512 549.251 749.491 549.522 750.353Z" fill="#21211F"/>
<path d="M615.673 689.353C617.182 689.211 617.801 690.12 618.508 690.801C627.685 699.637 637.896 707.229 647.871 715.095C653.06 719.187 658.176 723.345 663.231 727.604C670.22 733.493 677.681 738.818 684.903 744.432C691.318 749.419 697.807 754.323 704.015 759.558C706.956 762.039 710.156 764.076 713.24 766.312C714.465 767.201 715.646 768.19 716.676 769.293C717.4 770.07 717.523 771.204 716.829 772.104C715.898 773.31 714.841 774.423 713.793 775.535C706.963 782.779 699.15 788.863 691.44 795.133C678.003 806.059 663.607 815.623 649.668 825.832C647.835 827.174 645.862 828.325 644.101 829.468C641.952 829.045 641.765 827.288 641.368 825.971C640.122 821.84 639.039 817.655 638.039 813.455C636.387 806.517 634.565 799.609 631.879 793.017C627.286 781.743 620.672 771.911 610.247 765.091C609.395 764.533 608.654 763.766 607.747 763.339C604.637 761.873 603.763 759.396 604.846 756.379C606.591 751.515 605.768 746.31 607.211 741.353C607.964 738.765 608.31 735.911 608.851 733.175C609.981 727.459 611.616 721.719 611.739 715.961C611.875 709.552 613.806 703.4 613.6 697.011C613.505 694.191 614.565 691.691 615.673 689.353Z" fill="#21211F"/>
<path d="M340.946 511.934C339.235 513.086 339.402 514.856 339.378 516.588C339.327 520.284 339.231 523.98 339.154 527.676C338.702 526.013 338.25 524.349 337.798 522.685C337.798 517.385 337.798 512.085 337.798 506.184C340.061 507.736 340.71 509.707 340.946 511.934Z" fill="#C2AD9E"/>
<path d="M483.102 1459.82C483.188 1460.46 483.274 1461.1 483.36 1461.75C483.295 1462.71 482.671 1463.08 481.817 1463.2C481.408 1462.85 481.231 1462.48 481.287 1462.07C481.345 1461.64 481.431 1461.42 481.545 1461.42C481.823 1460.65 482.207 1459.99 483.102 1459.82Z" fill="#94847B"/>
<path d="M481.546 1461.42C481.637 1462.01 481.727 1462.6 481.817 1463.2C481.328 1463.97 480.733 1464.38 480.424 1463.16C480.226 1462.39 480.825 1461.78 481.546 1461.42Z" fill="#534B46"/>
<path d="M700.851 345.008C700.884 350.87 700.73 356.741 700.991 362.593C701.449 372.857 700.154 382.936 698.66 393.055C695.939 411.488 691.545 429.585 688.145 447.875C684.407 467.978 679.016 487.643 673.039 507.118C661.585 544.44 645.128 579.379 621.119 610.45C611.232 623.245 599.827 634.514 586.882 644.219C572.022 655.36 555.267 661.537 536.875 663.667C519.989 665.622 503.808 663.047 488.247 656.46C481.916 653.78 475.587 650.981 469.6 647.625C445.44 634.081 423.327 617.704 403.614 598.235C387.735 582.553 374.351 564.889 363.393 545.42C360.266 539.864 357.108 534.325 354.057 528.728C340.898 504.593 331.889 478.948 326.381 452.053C325.41 447.31 324.817 442.491 323.947 437.726C323.775 436.786 323.205 435.884 322.666 435.065C322.482 434.786 321.783 434.642 321.405 434.747C320.969 434.868 320.372 435.281 320.297 435.658C320.103 436.624 319.984 437.67 320.144 438.633C321.227 445.171 322.335 451.706 323.559 458.219C323.95 460.299 324.045 462.151 322.896 464.091C321.735 466.052 321.159 468.366 319.958 470.296C315.86 476.884 308.774 478.643 302.03 474.774C298.005 472.465 294.735 469.218 291.71 465.734C287.006 460.316 283.038 454.359 279.545 448.129C268.889 429.119 260.854 409.052 256.091 387.754C253.972 378.277 253.033 368.607 252.571 358.923C252.086 348.776 254.366 339.178 259.149 330.185C261.211 326.309 263.79 322.865 267.197 320.073C271.418 316.615 276.164 315.569 281.536 316.626C286.384 317.579 290.428 320.357 294.932 322.069C303.154 329.352 303.234 329.329 306.621 340.862C310.861 355.302 316.033 369.41 321.489 383.421C321.935 384.567 322.052 385.972 323.316 386.652C323.996 387.018 324.951 387.274 325.277 386.415C325.899 384.776 326.316 383.048 326.689 381.329C330.197 365.143 333.301 348.885 335.818 332.51C337.858 319.239 342.597 306.943 349.786 295.585C356.65 284.74 361.895 273.155 365.066 260.705C367.652 250.551 369.045 240.178 369.863 229.748C370.561 220.848 371.025 211.927 371.443 203.009C371.683 197.886 372.47 192.847 373.548 187.869C376.417 174.622 383.489 164.013 394.13 155.682C404.158 147.83 415.674 143.158 427.802 139.815C434.708 137.912 441.777 136.982 448.944 136.685C462.752 136.113 476.505 136.895 490.186 138.601C507.135 140.715 524.096 142.742 540.943 145.659C557.03 148.445 572.912 152.147 588.83 155.698C599.302 158.034 609.843 159.775 620.549 160.575C629.019 161.208 637.361 160.079 645.708 159.02C649.752 158.507 653.743 157.588 657.785 157.061C660.559 156.7 663.377 156.66 666.179 156.543C671.207 156.334 674.993 158.57 677.877 162.565C680.431 166.101 682.409 169.943 684.038 173.976C687.907 183.551 689.503 193.589 690.007 203.829C690.613 216.112 689.092 228.277 687.832 240.457C687.124 247.306 686.269 254.157 685.988 261.028C685.462 273.874 687.545 286.435 691.01 298.782C692.456 303.934 694.014 309.056 695.368 314.232C697.496 322.368 699.609 330.509 699.795 339.011C699.835 341.016 700.482 343.009 700.851 345.008Z" fill="#E3CAB8"/>
<path d="M291.912 263.137C291.912 258.799 291.892 254.461 291.919 250.124C291.936 247.327 291.792 244.528 292.794 241.803C293.222 240.639 293.438 239.281 293.322 238.051C292.596 230.35 294.436 222.842 295.164 215.277C295.963 206.97 298.095 198.814 300.11 190.677C304.774 171.838 311.775 153.882 319.522 136.12C324.441 124.841 330.79 114.473 337.243 104.123C347.431 87.782 360.514 73.848 374.695 61.008C382.398 54.034 391.026 48.16 399.976 42.719C417.554 32.033 436.725 25.291 456.069 18.867C469.105 14.538 482.41 11.035 495.858 8.48398C505.769 6.60398 515.799 4.51697 526.056 4.87397C527.793 4.93497 529.57 4.42299 531.298 4.03599C534.589 3.29799 537.904 3.09998 541.119 4.10798C543.625 4.89398 546.139 4.99596 548.681 4.91596C555.643 4.69896 562.26 6.43897 568.924 8.13697C583.063 11.74 596.396 17.509 609.392 23.882C624.943 31.507 639.522 40.853 653.26 51.481C657.507 54.767 661.255 58.577 665.359 61.969C674.223 69.293 681.724 78.079 690.491 85.408C700.707 93.947 709.585 103.777 719.225 112.854C724.643 117.956 727.214 124.556 729.459 131.363C730.2 133.611 729.775 135.826 729.301 138.125C727.901 144.911 725.195 151.223 722.553 157.551C718.288 167.768 715.646 178.268 716.121 189.436C716.273 193.002 716.19 196.58 716.15 200.152C716.055 208.572 717.429 216.828 718.819 225.088C719.071 226.588 719.139 228.123 719.219 229.646C719.299 231.174 719.029 232.765 719.359 234.228C722.035 246.085 720.403 258.103 720.786 270.041C721.138 280.999 719.418 291.784 718.071 302.626C717.062 310.746 715.757 318.709 712.963 326.384C711.746 329.726 710.399 333.074 707.815 335.673C707.128 336.363 706.241 337.232 705.164 336.542C704.622 336.194 704.195 335.411 704.043 334.75C702.962 330.053 701.759 325.37 701 320.617C700.233 315.822 699.127 311.113 697.508 306.582C694.071 296.96 692.095 286.997 690.461 276.986C689.729 272.503 690.088 267.822 690.163 263.234C690.254 257.656 689.476 251.995 691.454 246.558C691.072 238.89 693.715 231.472 693.284 223.779C693.1 220.498 693.131 217.206 694.191 213.938C695.139 211.014 695.059 207.841 694.18 204.874C693.514 202.628 693.28 200.401 693.238 198.096C693.038 186.963 689.927 176.586 685.236 166.567C683.681 163.245 681.414 160.459 679.02 157.911C674.132 152.71 667.776 151.209 660.815 152.36C652.817 153.683 644.879 155.808 636.836 156.298C628.007 156.836 619.142 156.954 610.192 155.509C595.632 153.158 581.338 149.789 566.986 146.543C557.353 144.365 547.543 142.965 537.804 141.266C533.807 140.568 529.671 140.397 525.805 139.275C520.117 137.624 514.216 138.282 508.474 136.869C501.115 135.058 493.358 135.477 485.881 133.913C483.424 133.399 480.799 133.677 478.25 133.614C474.946 133.533 471.696 133.061 468.421 132.661C461.118 131.767 453.703 131.468 446.364 132.919C444.627 133.262 442.841 133.589 441.085 133.554C437.22 133.476 433.503 134.101 429.796 135.13C417.492 138.548 405.511 142.671 394.992 150.21C380.919 160.297 371.56 173.564 368.788 190.781C367.543 198.514 366.377 206.349 366.85 214.307C367.105 218.595 367.325 222.968 365.743 227.177C365.314 228.319 365.476 229.698 365.442 230.97C365.108 243.508 362.634 255.671 358.824 267.566C356.09 276.104 351.964 284.06 347.322 291.667C340.084 303.527 334.82 316.136 332.038 329.704C330.512 337.144 329.901 344.768 328.53 352.245C327.342 358.724 326.313 365.264 324.109 371.521C323.865 372.213 323.708 373.053 322.722 372.803C322.292 372.694 321.684 372.258 321.619 371.889C320.014 362.751 314.659 354.961 312.379 346.07C308.956 332.721 303.565 320.09 298.521 307.308C293.534 294.67 291.242 281.401 291.858 267.728C291.927 266.2 291.867 264.666 291.867 263.135C291.88 263.137 291.896 263.137 291.912 263.137Z" fill="#28251E"/>
<path d="M705.134 366.588C705.134 366.352 705.35 365.032 705.096 363.81C704.03 358.675 706.244 354.882 709.913 351.706C712.798 349.209 715.724 346.743 718.792 344.48C720.408 343.288 722.297 342.382 724.182 341.656C731.568 338.809 735.761 341.092 737.755 348.862C739.238 354.639 739.427 360.499 738.412 366.321C736.793 375.603 735.246 384.922 733.038 394.073C727.723 416.107 721.893 438.013 714.482 459.457C712.066 466.446 709.205 473.259 705.393 479.628C702.705 484.121 699.204 487.735 694.135 489.486C692.712 489.978 691.183 490.37 689.691 490.411C686.071 490.51 683.449 487.483 683.919 483.958C684.02 483.203 684.225 482.46 684.41 481.719C692.19 450.568 698.705 419.156 703.544 387.413C704.541 380.879 705.631 374.302 705.134 366.588Z" fill="#E3CAB8"/>
<path d="M305.42 387.09C305.442 392.745 304.639 397.752 303.156 402.653C302.714 404.113 302.193 405.549 301.739 407.005C299.171 415.244 300.6 419.589 307.582 424.818C308.186 425.27 308.879 425.638 309.376 426.186C309.634 426.471 309.773 427.228 309.581 427.484C309.161 428.045 308.549 428.545 307.909 428.83C307.532 428.998 306.898 428.813 306.47 428.603C298.842 424.851 294.972 416.372 297.172 408.13C298.09 404.691 299.363 401.338 300.118 397.867C301.65 390.818 301.673 383.734 299.868 376.696C299.222 374.176 298.482 371.34 295.699 370.794C292.364 370.139 290.951 373.183 289.421 375.474C287.663 378.107 287.275 381.136 287.233 384.239C287.198 386.778 287.164 389.325 286.909 391.846C286.857 392.364 285.836 393.134 285.247 393.148C284.679 393.162 283.697 392.437 283.572 391.884C281.837 384.168 283.32 374.085 289.631 368.631C293.782 365.044 298.145 365.516 301.408 369.997C302.776 371.876 303.689 373.985 304.086 376.262C304.741 380.018 305.643 383.754 305.42 387.09Z" fill="#0F0D0C"/>
</svg>
