<svg width="227" height="118" viewBox="0 0 227 118" fill="none" xmlns="http://www.w3.org/2000/svg">
<g clip-path="url(#clip0_22_642)">
<path d="M23.8969 89.5132C23.8967 89.147 23.8045 88.8233 23.6182 88.5456C23.4352 88.2724 23.1611 88.0434 22.7934 87.8624C19.7584 86.3746 16.7204 84.8914 13.6863 83.4021C12.8684 83.0006 12.0753 83.0153 11.2634 83.4226C10.0554 84.0282 4.00718 86.9741 2.2049 87.8616C1.46267 88.2269 1.1015 88.786 1.10132 89.5126C1.10016 92.5046 1.10132 95.4966 1.10016 98.4886C1.10016 98.8469 1.18856 99.1643 1.36669 99.4378C1.54982 99.7193 1.82776 99.9545 2.20392 100.14C4.00629 101.027 10.0553 103.973 11.2631 104.579C12.0753 104.986 12.8684 105.001 13.6866 104.599C16.7207 103.11 19.7589 101.626 22.7944 100.139C23.1705 99.9537 23.4485 99.7183 23.6316 99.4371C23.8095 99.1635 23.898 98.8461 23.898 98.4878C23.898 98.4878 23.898 92.5053 23.8969 89.5132Z" fill="#A179DC"/>
<path d="M12.534 93.9715L1.3667 99.4379C1.54983 99.7193 1.82777 99.9545 2.20393 100.14C4.0063 101.027 10.0553 103.973 11.2631 104.579C12.0753 104.986 12.8684 105.001 13.6866 104.599C16.7208 103.11 19.7589 101.626 22.7944 100.139C23.1705 99.9537 23.4485 99.7183 23.6316 99.4371L12.534 93.9715Z" fill="#280068"/>
<path d="M23.8968 89.5132C23.8967 89.147 23.8045 88.8233 23.6182 88.5456L12.5339 93.9715L23.6316 99.4371C23.8094 99.1635 23.8978 98.8461 23.898 98.4878C23.898 98.4878 23.898 92.5053 23.8968 89.5132Z" fill="#390091"/>
<path d="M19.1089 91.9279V92.9497H20.3108V91.9279H20.9117V92.9497H22.1136V93.4606H20.9117V94.4823H22.1136V94.9932H20.9117V96.015H20.3108V94.9932H19.1089V96.015H18.5079V94.9932H17.3062V94.4823H18.5079V93.4606H17.3062V92.9497H18.5079V91.9279H19.1089ZM20.3108 93.4605H19.1089V94.4823H20.3108V93.4605Z" fill="white"/>
<path d="M12.5585 86.7964C15.6933 86.7964 18.4302 88.2438 19.8962 90.3952L19.882 90.3745L16.1936 92.18C15.4669 91.134 14.1348 90.428 12.6066 90.4135L12.5584 90.4133C10.228 90.4133 8.3388 92.0194 8.3388 94.0006C8.33803 94.625 8.52992 95.2387 8.89532 95.7804C9.62265 96.8599 10.99 97.588 12.5585 97.588C14.1367 97.588 15.5118 96.8506 16.2354 95.7596L16.2178 95.7858L19.9006 97.5996C18.4507 99.7328 15.7512 101.176 12.6529 101.204L12.5585 101.205C9.41375 101.205 6.66907 99.7485 5.20672 97.5858C4.49286 96.5299 4.08441 95.3059 4.08441 94.0006C4.08441 90.0219 7.87826 86.7964 12.5584 86.7964L12.5585 86.7964Z" fill="white"/>
</g>
<g clip-path="url(#clip1_22_642)">
<path d="M123.902 101.568C123.752 101.11 123.36 100.791 122.852 100.715C122.612 100.679 122.338 100.694 122.014 100.762C121.448 100.879 121.028 100.924 120.722 100.933C121.878 98.9649 122.818 96.7206 123.359 94.608C124.234 91.192 123.767 89.6358 123.22 88.9319C121.774 87.0688 119.665 86.0679 117.119 86.0373C115.762 86.0205 114.57 86.2908 113.948 86.4852C113.369 86.3822 112.747 86.3247 112.094 86.3141C110.869 86.2944 109.787 86.5635 108.863 87.1167C108.351 86.9422 107.53 86.6962 106.582 86.5392C104.351 86.1699 102.553 86.4577 101.238 87.3945C99.6458 88.5287 98.9076 90.4994 99.0441 93.2517C99.0875 94.1256 99.5723 96.7844 100.336 99.306C100.774 100.755 101.242 101.959 101.726 102.884C102.412 104.195 103.146 104.967 103.971 105.244C104.433 105.399 105.272 105.508 106.155 104.767C106.267 104.903 106.416 105.039 106.614 105.165C106.866 105.325 107.174 105.456 107.481 105.534C108.589 105.813 109.626 105.743 110.511 105.352C110.517 105.51 110.521 105.662 110.524 105.793C110.53 106.005 110.536 106.214 110.544 106.408C110.596 107.725 110.685 108.749 110.948 109.466C110.963 109.505 110.982 109.565 111.003 109.629C111.134 110.035 111.354 110.714 111.912 111.245C112.491 111.796 113.191 111.965 113.832 111.965C114.154 111.965 114.46 111.922 114.729 111.864C115.688 111.657 116.777 111.341 117.565 110.21C118.31 109.14 118.672 107.53 118.738 104.992C118.746 104.92 118.754 104.851 118.762 104.786L118.777 104.652L118.953 104.668L118.998 104.671C119.975 104.716 121.169 104.507 121.903 104.163C122.482 103.892 124.34 102.903 123.902 101.568Z" fill="black"/>
<path d="M122.232 101.828C119.328 102.432 119.128 101.44 119.128 101.44C122.194 96.8521 123.476 91.028 122.37 89.6026C119.352 85.7143 114.128 87.5532 114.041 87.6009L114.013 87.606C113.439 87.4858 112.797 87.4143 112.075 87.4024C110.761 87.3808 109.764 87.7499 109.008 88.3283C109.008 88.3283 99.6885 84.4568 100.122 93.1973C100.214 95.0567 102.765 107.267 105.807 103.579C106.919 102.23 107.994 101.09 107.994 101.09C108.527 101.447 109.166 101.63 109.836 101.564L109.888 101.52C109.872 101.687 109.879 101.851 109.909 102.045C109.125 102.928 109.356 103.083 107.789 103.408C106.203 103.738 107.135 104.324 107.743 104.478C108.48 104.663 110.185 104.927 111.338 103.3L111.292 103.486C111.599 103.734 111.815 105.099 111.778 106.337C111.742 107.574 111.718 108.424 111.96 109.088C112.202 109.751 112.443 111.245 114.503 110.8C116.224 110.428 117.116 109.464 117.24 107.856C117.328 106.713 117.527 106.882 117.54 105.861L117.7 105.377C117.884 103.828 117.729 103.328 118.789 103.56L119.047 103.583C119.827 103.619 120.849 103.456 121.448 103.175C122.739 102.571 123.505 101.563 122.232 101.828H122.232Z" fill="#336791"/>
<path d="M109.553 94.0288C109.292 93.9921 109.055 94.0261 108.935 94.1176C108.867 94.1691 108.846 94.2288 108.841 94.2699C108.826 94.3787 108.901 94.499 108.948 94.5611C109.079 94.7367 109.271 94.8575 109.461 94.8841C109.489 94.888 109.516 94.8898 109.544 94.8898C109.86 94.8898 110.149 94.6409 110.174 94.4573C110.206 94.2272 109.875 94.0738 109.553 94.0288ZM118.224 94.0361C118.199 93.8558 117.881 93.8044 117.579 93.8467C117.277 93.8891 116.985 94.0263 117.009 94.207C117.029 94.3476 117.28 94.5875 117.578 94.5875C117.603 94.5875 117.629 94.5858 117.654 94.5821C117.853 94.5544 117.999 94.427 118.068 94.3537C118.174 94.2418 118.235 94.1171 118.224 94.0361Z" fill="white"/>
<path d="M123.198 101.759C123.088 101.421 122.731 101.313 122.139 101.436C120.381 101.802 119.751 101.549 119.544 101.395C120.911 99.2956 122.035 96.7577 122.642 94.3898C122.929 93.2682 123.088 92.2265 123.101 91.3775C123.115 90.4456 122.958 89.7608 122.633 89.3425C121.324 87.6561 119.404 86.7515 117.078 86.7267C115.48 86.7086 114.129 87.1211 113.867 87.2371C113.316 87.0988 112.715 87.014 112.061 87.0031C110.861 86.9835 109.823 87.2732 108.965 87.8638C108.591 87.7238 107.627 87.39 106.448 87.1985C104.41 86.8676 102.79 87.1183 101.635 87.944C100.255 88.9294 99.6186 90.6907 99.7419 93.179C99.7835 94.0161 100.257 96.5914 101.003 99.0577C101.986 102.304 103.054 104.142 104.178 104.52C104.309 104.564 104.461 104.595 104.628 104.595C105.038 104.595 105.541 104.408 106.064 103.774C106.701 103.003 107.361 102.25 108.042 101.517C108.484 101.756 108.969 101.889 109.466 101.903C109.467 101.916 109.468 101.929 109.469 101.942C109.384 102.045 109.3 102.149 109.218 102.255C108.874 102.695 108.803 102.787 107.696 103.016C107.381 103.082 106.544 103.256 106.532 103.847C106.519 104.493 107.521 104.764 107.635 104.793C108.033 104.894 108.416 104.943 108.782 104.943C109.67 104.943 110.453 104.648 111.078 104.078C111.059 106.381 111.154 108.651 111.428 109.342C111.653 109.908 112.201 111.291 113.934 111.291C114.189 111.291 114.469 111.261 114.777 111.195C116.585 110.804 117.371 109.998 117.674 108.221C117.837 107.271 118.116 105.003 118.247 103.786C118.524 103.873 118.881 103.913 119.266 103.913C120.07 103.913 120.998 103.741 121.58 103.469C122.233 103.163 123.412 102.412 123.198 101.759ZM118.891 93.5384C118.885 93.8975 118.836 94.2236 118.784 94.5639C118.728 94.93 118.671 95.3084 118.656 95.7678C118.642 96.2149 118.697 96.6797 118.751 97.1292C118.859 98.0371 118.97 98.9719 118.54 99.8942C118.469 99.7666 118.405 99.6348 118.35 99.4994C118.296 99.3688 118.18 99.1591 118.019 98.8688C117.395 97.7387 115.931 95.0922 116.68 94.0124C116.903 93.6909 117.47 93.3605 118.891 93.5384ZM117.168 87.4539C119.252 87.5003 120.9 88.2862 122.066 89.7898C122.961 90.943 121.976 96.1904 119.123 100.717C119.094 100.681 119.066 100.644 119.037 100.607L119 100.562C119.738 99.3343 119.594 98.1196 119.465 97.0426C119.412 96.6007 119.363 96.1833 119.375 95.7911C119.388 95.3756 119.443 95.0191 119.496 94.6744C119.56 94.2497 119.626 93.8102 119.608 93.2921C119.622 93.2378 119.627 93.1736 119.62 93.0973C119.574 92.6005 119.011 91.1137 117.865 89.7679C117.238 89.0318 116.323 88.2081 115.074 87.6525C115.611 87.5402 116.346 87.4355 117.168 87.4539ZM105.51 103.31C104.934 104.009 104.536 103.875 104.405 103.831C103.553 103.544 102.564 101.727 101.691 98.8459C100.937 96.3527 100.496 93.8457 100.461 93.1426C100.351 90.9193 100.885 89.3698 102.049 88.5371C103.944 87.182 107.06 87.9931 108.312 88.4044C108.294 88.4223 108.275 88.4391 108.257 88.4573C106.203 90.5493 106.252 94.1235 106.257 94.3421C106.256 94.4264 106.263 94.5457 106.273 94.7099C106.308 95.3111 106.374 96.4299 106.198 97.697C106.035 98.8745 106.395 100.027 107.186 100.859C107.267 100.944 107.352 101.025 107.441 101.102C107.089 101.482 106.324 102.323 105.51 103.31ZM107.705 100.357C107.068 99.6862 106.779 98.7535 106.911 97.7975C107.097 96.459 107.028 95.2932 106.991 94.6669C106.986 94.5793 106.982 94.5025 106.979 94.4419C107.279 94.1736 108.67 93.4222 109.662 93.6514C110.114 93.7558 110.39 94.0666 110.505 94.6012C111.098 97.3686 110.583 98.522 110.169 99.449C110.084 99.6399 110.004 99.8204 109.935 100.007L109.882 100.151C109.747 100.516 109.621 100.856 109.543 101.178C108.866 101.176 108.207 100.884 107.705 100.357V100.357ZM107.809 104.089C107.612 104.039 107.434 103.953 107.329 103.881C107.416 103.839 107.572 103.783 107.841 103.727C109.143 103.457 109.344 103.266 109.784 102.704C109.884 102.575 109.998 102.429 110.157 102.25L110.157 102.25C110.392 101.984 110.5 102.03 110.695 102.111C110.854 102.177 111.008 102.377 111.07 102.598C111.1 102.702 111.133 102.899 111.024 103.052C110.107 104.348 108.77 104.331 107.809 104.089ZM114.626 110.485C113.032 110.829 112.468 110.01 112.096 109.072C111.857 108.467 111.739 105.739 111.822 102.726C111.823 102.686 111.818 102.647 111.807 102.611C111.797 102.539 111.782 102.468 111.762 102.398C111.638 101.96 111.335 101.593 110.971 101.441C110.826 101.38 110.561 101.27 110.242 101.352C110.31 101.069 110.428 100.75 110.556 100.405L110.61 100.26C110.67 100.096 110.746 99.9264 110.826 99.7468C111.259 98.777 111.852 97.4487 111.208 94.4478C110.967 93.3238 110.162 92.7749 108.942 92.9025C108.211 92.9788 107.541 93.2764 107.208 93.447C107.136 93.4837 107.07 93.5191 107.009 93.5536C107.102 92.4211 107.454 90.3047 108.771 88.9656C109.6 88.1227 110.704 87.7063 112.049 87.7288C114.699 87.7725 116.399 89.1441 117.358 90.2871C118.184 91.2719 118.632 92.264 118.811 92.7992C117.467 92.6614 116.554 92.9288 116.091 93.5964C115.083 95.0487 116.642 97.8675 117.391 99.2222C117.528 99.4704 117.647 99.685 117.684 99.7762C117.928 100.372 118.244 100.77 118.475 101.061C118.545 101.15 118.614 101.236 118.666 101.312C118.259 101.43 117.528 101.703 117.595 103.069C117.541 103.755 117.159 106.964 116.965 108.097C116.709 109.595 116.163 110.153 114.626 110.485V110.485ZM121.277 102.81C120.861 103.005 120.164 103.151 119.503 103.183C118.773 103.217 118.401 103.1 118.313 103.028C118.272 102.177 118.586 102.088 118.919 101.994C118.971 101.979 119.022 101.965 119.071 101.947C119.102 101.972 119.135 101.997 119.172 102.022C119.759 102.412 120.806 102.455 122.285 102.147L122.301 102.144C122.102 102.332 121.76 102.584 121.277 102.81Z" fill="white"/>
</g>
<g clip-path="url(#clip2_22_642)">
<path d="M203.312 95.8395C202.683 99.228 201.855 101.693 200.826 103.225C200.025 104.409 199.147 105.001 198.191 105.001C197.936 105.001 197.622 104.924 197.249 104.773V103.955C197.431 103.982 197.645 103.996 197.89 103.996C198.336 103.996 198.696 103.874 198.969 103.629C199.297 103.331 199.461 102.997 199.461 102.625C199.461 102.372 199.333 101.851 199.078 101.064L197.385 95.8373H198.901L200.116 99.7469C200.389 100.634 200.503 101.254 200.457 101.607C201.122 99.8423 201.586 97.9194 201.85 95.8406H203.311M196.621 102.599H195.078C195.024 100.01 194.874 97.5766 194.628 95.2955H194.615L192.266 102.599H191.091L188.756 95.2955H188.742C188.569 97.4855 188.46 99.9192 188.415 102.599H187.008C187.099 99.3409 187.327 96.2875 187.69 93.4369H189.602L191.828 100.168H191.842L194.081 93.4369H195.911C196.311 96.7759 196.548 99.8303 196.62 102.599" fill="#00758F"/>
<path d="M223.85 102.598H219.467V93.4358H220.942V101.47H223.85V102.597M212.828 100.764C212.454 100.167 212.267 99.2084 212.267 97.8867C212.267 95.5795 212.973 94.4251 214.384 94.4251C215.122 94.4251 215.663 94.7014 216.009 95.253C216.382 95.8504 216.569 96.8009 216.569 98.1042C216.569 100.43 215.863 101.594 214.452 101.594C213.715 101.594 213.173 101.318 212.828 100.765M218.317 102.819L216.622 101.988C216.773 101.865 216.917 101.732 217.046 101.579C217.766 100.738 218.125 99.494 218.125 97.8464C218.125 94.8148 216.928 93.2985 214.534 93.2985C213.36 93.2985 212.444 93.6827 211.789 94.4529C211.069 95.2944 210.71 96.535 210.71 98.1723C210.71 99.7829 211.029 100.965 211.665 101.715C212.246 102.394 213.124 102.733 214.3 102.733C214.738 102.733 215.141 102.68 215.506 102.572L217.713 103.849L218.314 102.819M210.068 100.058C210.068 100.835 209.781 101.473 209.208 101.972C208.635 102.469 207.865 102.719 206.902 102.719C206 102.719 205.126 102.431 204.279 101.863L204.676 101.076C205.404 101.438 206.063 101.618 206.655 101.618C207.21 101.618 207.644 101.495 207.959 101.253C208.272 101.008 208.461 100.668 208.461 100.235C208.461 99.6913 208.078 99.2264 207.379 98.8362C206.73 98.4774 206.084 98.1144 205.44 97.7472C204.741 97.2392 204.389 96.6947 204.389 95.7975C204.389 95.0552 204.651 94.4551 205.174 93.9989C205.698 93.541 206.374 93.3121 207.202 93.3121C208.058 93.3121 208.835 93.5394 209.536 93.9923L209.18 94.7788C208.581 94.5259 207.989 94.3989 207.406 94.3989C206.933 94.3989 206.568 94.5123 206.314 94.739C206.059 94.9641 205.901 95.2541 205.901 95.6073C205.901 96.1502 206.291 96.6211 207.011 97.019C207.665 97.3716 208.989 98.1221 208.989 98.1221C209.71 98.629 210.069 99.1692 210.069 100.059M224.9 102.598H225.144V101.666H225.464V101.475H224.568V101.666H224.9V102.598ZM226.759 102.598H226.99V101.475H226.643L226.361 102.241L226.054 101.475H225.72V102.598H225.939V101.743H225.951L226.272 102.598H226.438L226.759 101.743V102.598Z" fill="#F29111"/>
<path d="M211.591 78.0061C211.201 78.0006 210.861 78.1462 210.686 78.574C210.385 79.294 211.131 80.0021 211.388 80.3678C211.577 80.6223 211.822 80.9107 211.955 81.1979C212.033 81.3859 212.056 81.586 212.134 81.7849C212.312 82.2722 212.479 82.8145 212.713 83.2691C212.835 83.5018 212.968 83.7454 213.124 83.9547C213.214 84.0774 213.37 84.1319 213.403 84.3319C213.248 84.5527 213.236 84.8851 213.147 85.1626C212.746 86.4134 212.902 87.9636 213.47 88.8825C213.648 89.1589 214.071 89.7682 214.64 89.5355C215.141 89.3365 215.03 88.7054 215.174 88.1521C215.207 88.0181 215.185 87.9303 215.252 87.8415V87.8644C215.408 88.174 215.564 88.4721 215.709 88.7833C216.055 89.3251 216.655 89.8898 217.157 90.2658C217.423 90.4659 217.635 90.8087 217.969 90.9308V90.897H217.947C217.88 90.7978 217.78 90.7531 217.691 90.6763C217.49 90.4768 217.268 90.2331 217.112 90.0113C216.645 89.3921 216.232 88.7054 215.865 87.9968C215.687 87.6529 215.531 87.2768 215.386 86.934C215.32 86.8015 215.32 86.6015 215.208 86.5355C215.04 86.7786 214.796 86.9896 214.674 87.2872C214.462 87.7641 214.44 88.3505 214.361 88.9594C214.317 88.9708 214.339 88.9594 214.317 88.9812C213.961 88.8929 213.839 88.5277 213.704 88.2181C213.37 87.4316 213.314 86.1687 213.604 85.2618C213.681 85.0296 214.017 84.2992 213.883 84.0774C213.815 83.8659 213.593 83.7449 213.47 83.5787C213.315 83.3552 213.181 83.118 213.07 82.8701C212.803 82.2504 212.669 81.5636 212.38 80.9439C212.246 80.655 212.011 80.3569 211.823 80.0914C211.611 79.7922 211.377 79.5818 211.21 79.2281C211.155 79.106 211.077 78.9065 211.166 78.7741C211.187 78.6852 211.232 78.652 211.322 78.6296C211.465 78.5081 211.878 78.6623 212.023 78.7288C212.435 78.8945 212.78 79.0504 213.125 79.2821C213.281 79.3932 213.448 79.6036 213.648 79.6592H213.883C214.239 79.7366 214.64 79.681 214.974 79.7808C215.564 79.9688 216.099 80.2457 216.578 80.5444C218.053 81.4797 219.252 82.7863 220.052 84.3308C220.186 84.5854 220.242 84.8181 220.364 85.083C220.598 85.6269 220.888 86.1802 221.121 86.711C221.355 87.2316 221.578 87.763 221.913 88.1947C222.079 88.4269 222.748 88.5489 223.048 88.6705C223.271 88.7697 223.616 88.8585 223.817 88.9801C224.196 89.2123 224.573 89.4782 224.93 89.7333C225.108 89.8663 225.664 90.1427 225.698 90.3645C224.807 90.3427 224.117 90.431 223.537 90.6752C223.371 90.7411 223.104 90.7411 223.081 90.9515C223.171 91.0398 223.181 91.1837 223.26 91.3058C223.393 91.5276 223.627 91.8258 223.839 91.9816C224.073 92.1588 224.307 92.3354 224.552 92.4902C224.986 92.7573 225.476 92.9115 225.899 93.1769C226.144 93.3317 226.389 93.5312 226.634 93.6975C226.756 93.7858 226.834 93.9302 226.99 93.9847V93.9509C226.912 93.8517 226.89 93.7078 226.812 93.5966C226.701 93.4865 226.59 93.3868 226.478 93.2761C226.152 92.8474 225.761 92.4706 225.32 92.1588C224.963 91.9141 224.183 91.5816 224.039 91.1733L224.017 91.151C224.261 91.1287 224.552 91.0398 224.786 90.9728C225.164 90.873 225.509 90.8954 225.899 90.7962C226.077 90.7515 226.255 90.6959 226.435 90.6419V90.5411C226.233 90.3427 226.089 90.0762 225.878 89.8881C225.31 89.4014 224.686 88.9256 224.04 88.5261C223.694 88.3048 223.248 88.1614 222.881 87.9728C222.748 87.9063 222.525 87.8736 222.447 87.7624C222.247 87.5188 222.135 87.1983 221.991 86.91C221.661 86.2796 221.357 85.6369 221.077 84.9832C220.877 84.5516 220.754 84.1204 220.51 83.7215C219.362 81.8389 218.115 80.6992 216.2 79.5807C215.787 79.348 215.298 79.2483 214.775 79.1267C214.496 79.1153 214.218 79.094 213.939 79.0831C213.761 79.0046 213.582 78.7942 213.426 78.6945C213.029 78.4454 212.241 78.0148 211.592 78.005L211.591 78.0061ZM214.338 80.7428C214.149 80.7428 214.016 80.7657 213.882 80.7984V80.8202H213.903C213.993 80.9973 214.149 81.1199 214.26 81.2747C214.349 81.4519 214.427 81.6285 214.516 81.8056L214.538 81.7838C214.695 81.6732 214.773 81.496 214.773 81.23C214.705 81.1521 214.695 81.0753 214.639 80.9973C214.572 80.8872 214.427 80.8316 214.338 80.7428Z" fill="#00758F"/>
</g>
<path fill-rule="evenodd" clip-rule="evenodd" d="M21.6344 82.396C21.6344 82.396 21.6343 82.3962 21.7652 82.4695C21.8366 82.6014 21.8367 82.6014 21.8367 82.6014L21.844 82.5974L21.8665 82.5853L21.955 82.538C22.0329 82.4966 22.1478 82.4358 22.2956 82.3586C22.5911 82.2042 23.0179 81.9843 23.543 81.7224C24.5932 81.1984 26.0355 80.5065 27.6044 79.8347C29.1738 79.1627 30.8669 78.512 32.4194 78.0691C33.9776 77.6246 35.3731 77.396 36.3568 77.5497L36.4032 77.2533C35.3506 77.0888 33.901 77.3345 32.3371 77.7806C30.7675 78.2283 29.0615 78.8844 27.4863 79.5589C25.9105 80.2337 24.4627 80.9282 23.409 81.4539C22.8821 81.7168 22.4536 81.9376 22.1567 82.0927C22.1499 82.0963 22.1431 82.0998 22.1365 82.1033C22.1815 82.0197 22.2322 81.9251 22.288 81.8203C22.5323 81.3612 22.8735 80.7057 23.2619 79.9194C24.0385 78.3473 25.0046 76.2497 25.7602 74.1523C26.5138 72.0601 27.0654 69.9485 26.9968 68.3558C26.9625 67.5585 26.7721 66.8708 26.3531 66.3831C25.9294 65.8899 25.2921 65.6241 24.4169 65.6326L24.4198 65.9326C25.2294 65.9247 25.7729 66.1681 26.1255 66.5786C26.4828 66.9944 26.6642 67.6048 26.6971 68.3687C26.7629 69.8987 26.2299 71.963 25.4779 74.0507C24.7277 76.1332 23.767 78.2196 22.993 79.7865C22.6061 80.5697 22.2663 81.2225 22.0232 81.6794C21.9016 81.9078 21.8043 82.0872 21.7374 82.2094C21.704 82.2705 21.6782 82.3173 21.6607 82.3488L21.6409 82.3843L21.6344 82.396ZM21.7652 82.4695L21.8367 82.6014L21.381 82.8479L21.6344 82.396L21.7652 82.4695Z" fill="white"/>
<path fill-rule="evenodd" clip-rule="evenodd" d="M60.0278 46.1121C47.1443 53.0559 35.6464 62.8129 28.6955 74.0641L28.9507 74.2218C35.867 63.0265 47.3198 53.3021 60.1701 46.3762C73.0205 39.4502 87.2546 35.3301 99.7244 35.3301V35.0301C87.1942 35.0301 72.9113 39.1682 60.0278 46.1121Z" fill="white"/>
<path fill-rule="evenodd" clip-rule="evenodd" d="M199.47 82.3966C199.47 82.3966 199.47 82.3968 199.339 82.4701C199.268 82.6021 199.268 82.602 199.268 82.602L199.261 82.598L199.238 82.586L199.15 82.5386C199.072 82.4972 198.957 82.4364 198.809 82.3592C198.513 82.2048 198.087 81.9849 197.562 81.723C196.511 81.199 195.069 80.5071 193.5 79.8353C191.931 79.1633 190.238 78.5126 188.685 78.0697C187.127 77.6252 185.731 77.3966 184.748 77.5503L184.701 77.2539C185.754 77.0894 187.204 77.3351 188.767 77.7812C190.337 78.229 192.043 78.885 193.618 79.5596C195.194 80.2343 196.642 80.9288 197.696 81.4545C198.222 81.7174 198.651 81.9382 198.948 82.0933C198.955 82.0969 198.961 82.1004 198.968 82.1039C198.923 82.0203 198.872 81.9257 198.817 81.8209C198.572 81.3618 198.231 80.7063 197.843 79.92C197.066 78.348 196.1 76.2503 195.344 74.1529C194.591 72.0607 194.039 69.9491 194.108 68.3565C194.142 67.5591 194.332 66.8714 194.751 66.3837C195.175 65.8905 195.812 65.6247 196.688 65.6332L196.685 65.9332C195.875 65.9253 195.332 66.1687 194.979 66.5792C194.622 66.995 194.44 67.6054 194.407 68.3693C194.342 69.8993 194.875 71.9636 195.627 74.0513C196.377 76.1338 197.338 78.2202 198.112 79.7872C198.498 80.5703 198.838 81.2231 199.081 81.68C199.203 81.9084 199.3 82.0878 199.367 82.21C199.401 82.2711 199.426 82.3179 199.444 82.3494L199.464 82.385L199.47 82.3966ZM199.339 82.4701L199.268 82.602L199.724 82.8485L199.47 82.3966L199.339 82.4701Z" fill="white"/>
<path fill-rule="evenodd" clip-rule="evenodd" d="M161.077 46.1127C173.96 53.0565 185.458 62.8135 192.409 74.0647L192.154 74.2224C185.238 63.0272 173.785 53.3027 160.934 46.3768C148.084 39.4508 133.85 35.3307 121.38 35.3307V35.0307C133.91 35.0307 148.193 39.1688 161.077 46.1127Z" fill="white"/>
<path d="M110.999 35.0006V71.5006" stroke="white" stroke-width="0.2"/>
<path d="M104.46 70.6401C108.439 68.9206 111.726 84.0053 111.726 84.0053C111.726 84.0053 114.576 68.4211 117.417 69.5855" stroke="white" stroke-width="0.2"/>
<defs>
<clipPath id="clip0_22_642">
<rect width="23" height="22" fill="white" transform="translate(0.999084 83.0006)"/>
</clipPath>
<clipPath id="clip1_22_642">
<rect width="25" height="26" fill="white" transform="translate(98.9991 86.0006)"/>
</clipPath>
<clipPath id="clip2_22_642">
<rect width="40" height="27" fill="white" transform="translate(186.999 78.0006)"/>
</clipPath>
</defs>
</svg>
